%TF.GenerationSoftware,KiCad,Pcbnew,9.0.7-9.0.7~ubuntu24.04.1*%
%TF.CreationDate,2026-02-23T19:59:15-05:00*%
%TF.ProjectId,schematic,73636865-6d61-4746-9963-2e6b69636164,rev?*%
%TF.SameCoordinates,Original*%
%TF.FileFunction,Copper,L1,Top*%
%TF.FilePolarity,Positive*%
%FSLAX46Y46*%
G04 Gerber Fmt 4.6, Leading zero omitted, Abs format (unit mm)*
G04 Created by KiCad (PCBNEW 9.0.7-9.0.7~ubuntu24.04.1) date 2026-02-23 19:59:15*
%MOMM*%
%LPD*%
G01*
G04 APERTURE LIST*
%TA.AperFunction,ComponentPad*%
%ADD10O,2.600000X1.800000*%
%TD*%
%TA.AperFunction,ComponentPad*%
%ADD11R,2.600000X1.800000*%
%TD*%
%TA.AperFunction,ComponentPad*%
%ADD12C,3.000000*%
%TD*%
%TA.AperFunction,ComponentPad*%
%ADD13R,2.000000X1.200000*%
%TD*%
%TA.AperFunction,ComponentPad*%
%ADD14O,2.000000X1.200000*%
%TD*%
%TA.AperFunction,Conductor*%
%ADD15C,0.200000*%
%TD*%
%TA.AperFunction,Conductor*%
%ADD16C,0.500000*%
%TD*%
%TA.AperFunction,Conductor*%
%ADD17C,0.250000*%
%TD*%
G04 APERTURE END LIST*
D10*
%TO.P,DS1,16,LED(-)*%
%TO.N,Net-(DS1-LED(-))*%
X157500000Y-83900000D03*
%TO.P,DS1,15,LED(+)*%
%TO.N,Net-(DS1-LED(+))*%
X157500000Y-86440000D03*
%TO.P,DS1,14,D7*%
%TO.N,Net-(DS1-D7)*%
X157500000Y-88980000D03*
%TO.P,DS1,13,D6*%
%TO.N,Net-(DS1-D6)*%
X157500000Y-91520000D03*
%TO.P,DS1,12,D5*%
%TO.N,Net-(DS1-D5)*%
X157500000Y-94060000D03*
%TO.P,DS1,11,D4*%
%TO.N,Net-(DS1-D4)*%
X157500000Y-96600000D03*
%TO.P,DS1,10,D3*%
%TO.N,unconnected-(DS1-D3-Pad10)*%
X157500000Y-99140000D03*
%TO.P,DS1,9,D2*%
%TO.N,unconnected-(DS1-D2-Pad9)*%
X157500000Y-101680000D03*
%TO.P,DS1,8,D1*%
%TO.N,unconnected-(DS1-D1-Pad8)*%
X157500000Y-104220000D03*
%TO.P,DS1,7,D0*%
%TO.N,unconnected-(DS1-D0-Pad7)*%
X157500000Y-106760000D03*
%TO.P,DS1,6,E*%
%TO.N,Net-(DS1-E)*%
X157500000Y-109300000D03*
%TO.P,DS1,5,R/W*%
%TO.N,Net-(DS1-R{slash}W)*%
X157500000Y-111840000D03*
%TO.P,DS1,4,RS*%
%TO.N,Net-(DS1-RS)*%
X157500000Y-114380000D03*
%TO.P,DS1,3,VO*%
%TO.N,Net-(DS1-LED(-))*%
X157500000Y-116920000D03*
%TO.P,DS1,2,VDD*%
%TO.N,Net-(DS1-LED(+))*%
X157500000Y-119460000D03*
D11*
%TO.P,DS1,1,VSS*%
%TO.N,Net-(DS1-R{slash}W)*%
X157500000Y-122000000D03*
D12*
%TO.P,DS1,*%
%TO.N,*%
X157500000Y-52500000D03*
X188500700Y-52500520D03*
X188500700Y-127499100D03*
X157500000Y-127499100D03*
%TD*%
D13*
%TO.P,U1,1,3V3*%
%TO.N,unconnected-(U1-3V3-Pad1)*%
X75000000Y-64450000D03*
D14*
%TO.P,U1,2,EN/RESET*%
%TO.N,unconnected-(U1-EN{slash}RESET-Pad2)*%
X75000000Y-66990000D03*
%TO.P,U1,3,GPIO2/MTMS*%
%TO.N,Net-(DS1-D6)*%
X75000000Y-69530000D03*
%TO.P,U1,4,GPIO3/MTDI*%
%TO.N,Net-(DS1-D7)*%
X75000000Y-72070000D03*
%TO.P,U1,5,GPIO4/MTCK*%
%TO.N,unconnected-(U1-GPIO4{slash}MTCK-Pad5)*%
X75000000Y-74610000D03*
%TO.P,U1,6,GPIO5/MTDO*%
%TO.N,unconnected-(U1-GPIO5{slash}MTDO-Pad6)*%
X75000000Y-77150000D03*
%TO.P,U1,7,GPIO0*%
%TO.N,Net-(DS1-D4)*%
X75000000Y-79690000D03*
%TO.P,U1,8,GPIO1*%
%TO.N,Net-(DS1-D5)*%
X75000000Y-82230000D03*
%TO.P,U1,9,GPIO27*%
%TO.N,unconnected-(U1-GPIO27-Pad9)*%
X75000000Y-84770000D03*
%TO.P,U1,10,GPIO6*%
%TO.N,Net-(DS1-RS)*%
X75000000Y-87310000D03*
%TO.P,U1,11,GPIO7*%
%TO.N,Net-(DS1-E)*%
X75000000Y-89850000D03*
%TO.P,U1,12,GPIO26*%
%TO.N,unconnected-(U1-GPIO26-Pad12)*%
X75000000Y-92390000D03*
%TO.P,U1,13,GPIO25*%
%TO.N,unconnected-(U1-GPIO25-Pad13)*%
X75000000Y-94930000D03*
%TO.P,U1,14,5V*%
%TO.N,Net-(DS1-LED(+))*%
X75000000Y-97470000D03*
%TO.P,U1,15,GND*%
%TO.N,Net-(DS1-LED(-))*%
X75000000Y-100010000D03*
%TO.P,U1,16,NC*%
%TO.N,unconnected-(U1-NC-Pad16)*%
X75000000Y-102550000D03*
%TO.P,U1,17,NC*%
%TO.N,unconnected-(U1-NC-Pad17)*%
X97860000Y-102550000D03*
%TO.P,U1,18,GND*%
%TO.N,unconnected-(U1-GND-Pad18)*%
X97860000Y-100010000D03*
%TO.P,U1,19,GPIO13/USB_D-*%
%TO.N,unconnected-(U1-GPIO13{slash}USB_D--Pad19)*%
X97860000Y-97470000D03*
%TO.P,U1,20,GPIO14/USB_D+*%
%TO.N,unconnected-(U1-GPIO14{slash}USB_D+-Pad20)*%
X97860000Y-94930000D03*
%TO.P,U1,21,GND*%
%TO.N,unconnected-(U1-GND-Pad21)*%
X97860000Y-92390000D03*
%TO.P,U1,22,GPIO28*%
%TO.N,unconnected-(U1-GPIO28-Pad22)*%
X97860000Y-89850000D03*
%TO.P,U1,23,NC*%
%TO.N,unconnected-(U1-NC-Pad23)*%
X97860000Y-87310000D03*
%TO.P,U1,24,GPIO8*%
%TO.N,unconnected-(U1-GPIO8-Pad24)*%
X97860000Y-84770000D03*
%TO.P,U1,25,GPIO9*%
%TO.N,unconnected-(U1-GPIO9-Pad25)*%
X97860000Y-82230000D03*
%TO.P,U1,26,GPIO10*%
%TO.N,unconnected-(U1-GPIO10-Pad26)*%
X97860000Y-79690000D03*
%TO.P,U1,27,GPIO15*%
%TO.N,unconnected-(U1-GPIO15-Pad27)*%
X97860000Y-77150000D03*
%TO.P,U1,28,GPIO23*%
%TO.N,unconnected-(U1-GPIO23-Pad28)*%
X97860000Y-74610000D03*
%TO.P,U1,29,GPIO24*%
%TO.N,unconnected-(U1-GPIO24-Pad29)*%
X97860000Y-72070000D03*
%TO.P,U1,30,GPIO12/U0RXD*%
%TO.N,unconnected-(U1-GPIO12{slash}U0RXD-Pad30)*%
X97860000Y-69530000D03*
%TO.P,U1,31,GPIO11/U0TXD*%
%TO.N,unconnected-(U1-GPIO11{slash}U0TXD-Pad31)*%
X97860000Y-66990000D03*
%TO.P,U1,32,GND*%
%TO.N,Net-(DS1-R{slash}W)*%
X97860000Y-64450000D03*
%TD*%
D15*
%TO.N,Net-(DS1-R{slash}W)*%
X155250000Y-122000000D02*
X153500000Y-120250000D01*
X163750000Y-118250000D02*
X163750000Y-110911530D01*
X154250000Y-118250000D02*
X163750000Y-118250000D01*
X157500000Y-122000000D02*
X155250000Y-122000000D01*
X153500000Y-120250000D02*
X153500000Y-119000000D01*
X153500000Y-119000000D02*
X154250000Y-118250000D01*
X163750000Y-110911530D02*
X160937470Y-108099000D01*
X160937470Y-108099000D02*
X149231000Y-108099000D01*
X149231000Y-108099000D02*
X145370000Y-111960000D01*
D16*
%TO.N,Net-(DS1-LED(+))*%
X157500000Y-119460000D02*
X168210000Y-119460000D01*
X168210000Y-119460000D02*
X168250000Y-119500000D01*
X168250000Y-119500000D02*
X168750000Y-119000000D01*
X168750000Y-119000000D02*
X168750000Y-88250000D01*
X168750000Y-88250000D02*
X166940000Y-86440000D01*
X166940000Y-86440000D02*
X157500000Y-86440000D01*
%TO.N,Net-(DS1-LED(-))*%
X157500000Y-116920000D02*
X151080000Y-116920000D01*
X151080000Y-116920000D02*
X148000000Y-120000000D01*
X165000000Y-137000000D02*
X170250000Y-131750000D01*
X148000000Y-120000000D02*
X148000000Y-132500000D01*
X170250000Y-131750000D02*
X170250000Y-83900000D01*
X148000000Y-132500000D02*
X152500000Y-137000000D01*
X152500000Y-137000000D02*
X165000000Y-137000000D01*
X170250000Y-83900000D02*
X157500000Y-83900000D01*
D17*
%TO.N,Net-(DS1-D7)*%
X73674000Y-63524000D02*
X73674000Y-65376000D01*
X155220470Y-95374000D02*
X154325470Y-96269000D01*
X112649000Y-55899000D02*
X76101000Y-55899000D01*
X74711810Y-68604000D02*
X75783562Y-68604000D01*
X74250000Y-63524000D02*
X73674000Y-63524000D01*
X154325470Y-96269000D02*
X153019000Y-96269000D01*
X76101000Y-55899000D02*
X74250000Y-57750000D01*
X76326000Y-69146438D02*
X76326000Y-69913562D01*
X153019000Y-96269000D02*
X112649000Y-55899000D01*
X161626000Y-95374000D02*
X155220470Y-95374000D01*
X74250000Y-57750000D02*
X74250000Y-63524000D01*
X73674000Y-65376000D02*
X74250000Y-65376000D01*
X157500000Y-88980000D02*
X161480000Y-88980000D01*
X164750000Y-92250000D02*
X161626000Y-95374000D01*
X161480000Y-88980000D02*
X164750000Y-92250000D01*
X74250000Y-65376000D02*
X74250000Y-66064000D01*
X74250000Y-66064000D02*
X74216438Y-66064000D01*
X74216438Y-66064000D02*
X73674000Y-66606438D01*
X73674000Y-66606438D02*
X73674000Y-67373562D01*
X73674000Y-67373562D02*
X74216438Y-67916000D01*
X74216438Y-67916000D02*
X74250000Y-67916000D01*
X74250000Y-67916000D02*
X74250000Y-68142190D01*
X74250000Y-68142190D02*
X74711810Y-68604000D01*
X75783562Y-68604000D02*
X76326000Y-69146438D01*
X76326000Y-69913562D02*
X75783562Y-70456000D01*
X75783562Y-70456000D02*
X74250000Y-70456000D01*
X74250000Y-70456000D02*
X74250000Y-70717546D01*
X74250000Y-70717546D02*
X75301227Y-71768773D01*
%TO.N,Net-(DS1-D4)*%
X75000000Y-79690000D02*
X94440000Y-60250000D01*
X94440000Y-60250000D02*
X112750000Y-60250000D01*
X112750000Y-60250000D02*
X149220000Y-96720000D01*
X149220000Y-96720000D02*
X157500000Y-96720000D01*
D16*
%TO.N,Net-(DS1-LED(-))*%
X157500000Y-58000000D02*
X157500000Y-83900000D01*
D17*
%TO.N,Net-(DS1-D5)*%
X75000000Y-82230000D02*
X69250000Y-76480000D01*
X69250000Y-76480000D02*
X69250000Y-52500000D01*
X160801000Y-90301000D02*
X162750000Y-92250000D01*
X69250000Y-52500000D02*
X71250000Y-50500000D01*
X71250000Y-50500000D02*
X116801530Y-50500000D01*
X116801530Y-50500000D02*
X156595530Y-90294000D01*
X162750000Y-92250000D02*
X160820000Y-94180000D01*
X160820000Y-94180000D02*
X157500000Y-94180000D01*
X156595530Y-90294000D02*
X158407826Y-90294000D01*
X158407826Y-90294000D02*
X158414826Y-90301000D01*
X158414826Y-90301000D02*
X160801000Y-90301000D01*
%TO.N,Net-(DS1-D6)*%
X70000000Y-64530000D02*
X75000000Y-69530000D01*
X114000000Y-53000000D02*
X71000000Y-53000000D01*
X70000000Y-54000000D02*
X70000000Y-64530000D01*
X157500000Y-91640000D02*
X152640000Y-91640000D01*
X152640000Y-91640000D02*
X114000000Y-53000000D01*
X71000000Y-53000000D02*
X70000000Y-54000000D01*
%TO.N,Net-(DS1-RS)*%
X157500000Y-114500000D02*
X102190000Y-114500000D01*
X102190000Y-114500000D02*
X75000000Y-87310000D01*
D16*
%TO.N,Net-(DS1-R{slash}W)*%
X145370000Y-111960000D02*
X97860000Y-64450000D01*
X157500000Y-111960000D02*
X145370000Y-111960000D01*
%TO.N,Net-(DS1-LED(+))*%
X157500000Y-86560000D02*
X119440000Y-48500000D01*
X68500000Y-98500000D02*
X69530000Y-97470000D01*
X67500000Y-48500000D02*
X67500000Y-97500000D01*
X69530000Y-97470000D02*
X75000000Y-97470000D01*
X119440000Y-48500000D02*
X67500000Y-48500000D01*
X67500000Y-97500000D02*
X68500000Y-98500000D01*
D17*
%TO.N,Net-(DS1-E)*%
X100851000Y-115701000D02*
X156585174Y-115701000D01*
X75000000Y-89850000D02*
X100851000Y-115701000D01*
X159300000Y-109300000D02*
X157500000Y-109300000D01*
X159694000Y-115694000D02*
X159750000Y-115638000D01*
X156592174Y-115694000D02*
X159694000Y-115694000D01*
X159750000Y-115638000D02*
X159750000Y-109750000D01*
X159750000Y-109750000D02*
X159300000Y-109300000D01*
X156585174Y-115701000D02*
X156592174Y-115694000D01*
D16*
%TO.N,Net-(DS1-LED(-))*%
X67010000Y-100010000D02*
X75000000Y-100010000D01*
X142000000Y-42500000D02*
X64500000Y-42500000D01*
X62500000Y-95500000D02*
X67010000Y-100010000D01*
X62500000Y-44500000D02*
X62500000Y-95500000D01*
X64500000Y-42500000D02*
X62500000Y-44500000D01*
X157500000Y-58000000D02*
X142000000Y-42500000D01*
%TD*%
M02*
