M48
; DRILL file {KiCad 9.0.7-9.0.7~ubuntu24.04.1} date 2026-02-23T19:59:11-0500
; FORMAT={-:-/ absolute / metric / decimal}
; #@! TF.CreationDate,2026-02-23T19:59:11-05:00
; #@! TF.GenerationSoftware,Kicad,Pcbnew,9.0.7-9.0.7~ubuntu24.04.1
; #@! TF.FileFunction,Plated,1,2,PTH
FMAT,2
METRIC
; #@! TA.AperFunction,Plated,PTH,ComponentDrill
T1C0.800
; #@! TA.AperFunction,Plated,PTH,ComponentDrill
T2C1.200
; #@! TA.AperFunction,Plated,PTH,ComponentDrill
T3C2.500
%
G90
G05
T1
X75.0Y-64.45
X75.0Y-66.99
X75.0Y-69.53
X75.0Y-72.07
X75.0Y-74.61
X75.0Y-77.15
X75.0Y-79.69
X75.0Y-82.23
X75.0Y-84.77
X75.0Y-87.31
X75.0Y-89.85
X75.0Y-92.39
X75.0Y-94.93
X75.0Y-97.47
X75.0Y-100.01
X75.0Y-102.55
X97.86Y-64.45
X97.86Y-66.99
X97.86Y-69.53
X97.86Y-72.07
X97.86Y-74.61
X97.86Y-77.15
X97.86Y-79.69
X97.86Y-82.23
X97.86Y-84.77
X97.86Y-87.31
X97.86Y-89.85
X97.86Y-92.39
X97.86Y-94.93
X97.86Y-97.47
X97.86Y-100.01
X97.86Y-102.55
T2
X157.5Y-83.9
X157.5Y-86.44
X157.5Y-88.98
X157.5Y-91.52
X157.5Y-94.06
X157.5Y-96.6
X157.5Y-99.14
X157.5Y-101.68
X157.5Y-104.22
X157.5Y-106.76
X157.5Y-109.3
X157.5Y-111.84
X157.5Y-114.38
X157.5Y-116.92
X157.5Y-119.46
X157.5Y-122.0
T3
X157.5Y-52.5
X157.5Y-127.499
X188.501Y-52.501
X188.501Y-127.499
M30
