%TF.GenerationSoftware,KiCad,Pcbnew,9.0.7-9.0.7~ubuntu24.04.1*%
%TF.CreationDate,2026-02-23T19:59:15-05:00*%
%TF.ProjectId,schematic,73636865-6d61-4746-9963-2e6b69636164,rev?*%
%TF.SameCoordinates,Original*%
%TF.FileFunction,Legend,Top*%
%TF.FilePolarity,Positive*%
%FSLAX46Y46*%
G04 Gerber Fmt 4.6, Leading zero omitted, Abs format (unit mm)*
G04 Created by KiCad (PCBNEW 9.0.7-9.0.7~ubuntu24.04.1) date 2026-02-23 19:59:15*
%MOMM*%
%LPD*%
G01*
G04 APERTURE LIST*
%ADD10C,0.150000*%
%ADD11C,0.100000*%
%ADD12C,0.120000*%
G04 APERTURE END LIST*
D10*
X76511541Y-63904819D02*
X77130588Y-63904819D01*
X77130588Y-63904819D02*
X76797255Y-64285771D01*
X76797255Y-64285771D02*
X76940112Y-64285771D01*
X76940112Y-64285771D02*
X77035350Y-64333390D01*
X77035350Y-64333390D02*
X77082969Y-64381009D01*
X77082969Y-64381009D02*
X77130588Y-64476247D01*
X77130588Y-64476247D02*
X77130588Y-64714342D01*
X77130588Y-64714342D02*
X77082969Y-64809580D01*
X77082969Y-64809580D02*
X77035350Y-64857200D01*
X77035350Y-64857200D02*
X76940112Y-64904819D01*
X76940112Y-64904819D02*
X76654398Y-64904819D01*
X76654398Y-64904819D02*
X76559160Y-64857200D01*
X76559160Y-64857200D02*
X76511541Y-64809580D01*
X77416303Y-63904819D02*
X77749636Y-64904819D01*
X77749636Y-64904819D02*
X78082969Y-63904819D01*
X78321065Y-63904819D02*
X78940112Y-63904819D01*
X78940112Y-63904819D02*
X78606779Y-64285771D01*
X78606779Y-64285771D02*
X78749636Y-64285771D01*
X78749636Y-64285771D02*
X78844874Y-64333390D01*
X78844874Y-64333390D02*
X78892493Y-64381009D01*
X78892493Y-64381009D02*
X78940112Y-64476247D01*
X78940112Y-64476247D02*
X78940112Y-64714342D01*
X78940112Y-64714342D02*
X78892493Y-64809580D01*
X78892493Y-64809580D02*
X78844874Y-64857200D01*
X78844874Y-64857200D02*
X78749636Y-64904819D01*
X78749636Y-64904819D02*
X78463922Y-64904819D01*
X78463922Y-64904819D02*
X78368684Y-64857200D01*
X78368684Y-64857200D02*
X78321065Y-64809580D01*
X153954819Y-128594285D02*
X152954819Y-128594285D01*
X152954819Y-128594285D02*
X152954819Y-128356190D01*
X152954819Y-128356190D02*
X153002438Y-128213333D01*
X153002438Y-128213333D02*
X153097676Y-128118095D01*
X153097676Y-128118095D02*
X153192914Y-128070476D01*
X153192914Y-128070476D02*
X153383390Y-128022857D01*
X153383390Y-128022857D02*
X153526247Y-128022857D01*
X153526247Y-128022857D02*
X153716723Y-128070476D01*
X153716723Y-128070476D02*
X153811961Y-128118095D01*
X153811961Y-128118095D02*
X153907200Y-128213333D01*
X153907200Y-128213333D02*
X153954819Y-128356190D01*
X153954819Y-128356190D02*
X153954819Y-128594285D01*
X153907200Y-127641904D02*
X153954819Y-127499047D01*
X153954819Y-127499047D02*
X153954819Y-127260952D01*
X153954819Y-127260952D02*
X153907200Y-127165714D01*
X153907200Y-127165714D02*
X153859580Y-127118095D01*
X153859580Y-127118095D02*
X153764342Y-127070476D01*
X153764342Y-127070476D02*
X153669104Y-127070476D01*
X153669104Y-127070476D02*
X153573866Y-127118095D01*
X153573866Y-127118095D02*
X153526247Y-127165714D01*
X153526247Y-127165714D02*
X153478628Y-127260952D01*
X153478628Y-127260952D02*
X153431009Y-127451428D01*
X153431009Y-127451428D02*
X153383390Y-127546666D01*
X153383390Y-127546666D02*
X153335771Y-127594285D01*
X153335771Y-127594285D02*
X153240533Y-127641904D01*
X153240533Y-127641904D02*
X153145295Y-127641904D01*
X153145295Y-127641904D02*
X153050057Y-127594285D01*
X153050057Y-127594285D02*
X153002438Y-127546666D01*
X153002438Y-127546666D02*
X152954819Y-127451428D01*
X152954819Y-127451428D02*
X152954819Y-127213333D01*
X152954819Y-127213333D02*
X153002438Y-127070476D01*
X153954819Y-126118095D02*
X153954819Y-126689523D01*
X153954819Y-126403809D02*
X152954819Y-126403809D01*
X152954819Y-126403809D02*
X153097676Y-126499047D01*
X153097676Y-126499047D02*
X153192914Y-126594285D01*
X153192914Y-126594285D02*
X153240533Y-126689523D01*
D11*
X86356295Y-60316019D02*
X86356295Y-61125542D01*
X86356295Y-61125542D02*
X86403914Y-61220780D01*
X86403914Y-61220780D02*
X86451533Y-61268400D01*
X86451533Y-61268400D02*
X86546771Y-61316019D01*
X86546771Y-61316019D02*
X86737247Y-61316019D01*
X86737247Y-61316019D02*
X86832485Y-61268400D01*
X86832485Y-61268400D02*
X86880104Y-61220780D01*
X86880104Y-61220780D02*
X86927723Y-61125542D01*
X86927723Y-61125542D02*
X86927723Y-60316019D01*
X87927723Y-61316019D02*
X87356295Y-61316019D01*
X87642009Y-61316019D02*
X87642009Y-60316019D01*
X87642009Y-60316019D02*
X87546771Y-60458876D01*
X87546771Y-60458876D02*
X87451533Y-60554114D01*
X87451533Y-60554114D02*
X87356295Y-60601733D01*
D10*
X94681792Y-103004819D02*
X94681792Y-102004819D01*
X94681792Y-102004819D02*
X95253220Y-103004819D01*
X95253220Y-103004819D02*
X95253220Y-102004819D01*
X96300839Y-102909580D02*
X96253220Y-102957200D01*
X96253220Y-102957200D02*
X96110363Y-103004819D01*
X96110363Y-103004819D02*
X96015125Y-103004819D01*
X96015125Y-103004819D02*
X95872268Y-102957200D01*
X95872268Y-102957200D02*
X95777030Y-102861961D01*
X95777030Y-102861961D02*
X95729411Y-102766723D01*
X95729411Y-102766723D02*
X95681792Y-102576247D01*
X95681792Y-102576247D02*
X95681792Y-102433390D01*
X95681792Y-102433390D02*
X95729411Y-102242914D01*
X95729411Y-102242914D02*
X95777030Y-102147676D01*
X95777030Y-102147676D02*
X95872268Y-102052438D01*
X95872268Y-102052438D02*
X96015125Y-102004819D01*
X96015125Y-102004819D02*
X96110363Y-102004819D01*
X96110363Y-102004819D02*
X96253220Y-102052438D01*
X96253220Y-102052438D02*
X96300839Y-102100057D01*
X85110363Y-69032438D02*
X85015125Y-68984819D01*
X85015125Y-68984819D02*
X84872268Y-68984819D01*
X84872268Y-68984819D02*
X84729411Y-69032438D01*
X84729411Y-69032438D02*
X84634173Y-69127676D01*
X84634173Y-69127676D02*
X84586554Y-69222914D01*
X84586554Y-69222914D02*
X84538935Y-69413390D01*
X84538935Y-69413390D02*
X84538935Y-69556247D01*
X84538935Y-69556247D02*
X84586554Y-69746723D01*
X84586554Y-69746723D02*
X84634173Y-69841961D01*
X84634173Y-69841961D02*
X84729411Y-69937200D01*
X84729411Y-69937200D02*
X84872268Y-69984819D01*
X84872268Y-69984819D02*
X84967506Y-69984819D01*
X84967506Y-69984819D02*
X85110363Y-69937200D01*
X85110363Y-69937200D02*
X85157982Y-69889580D01*
X85157982Y-69889580D02*
X85157982Y-69556247D01*
X85157982Y-69556247D02*
X84967506Y-69556247D01*
X85586554Y-69984819D02*
X85586554Y-68984819D01*
X85586554Y-68984819D02*
X85967506Y-68984819D01*
X85967506Y-68984819D02*
X86062744Y-69032438D01*
X86062744Y-69032438D02*
X86110363Y-69080057D01*
X86110363Y-69080057D02*
X86157982Y-69175295D01*
X86157982Y-69175295D02*
X86157982Y-69318152D01*
X86157982Y-69318152D02*
X86110363Y-69413390D01*
X86110363Y-69413390D02*
X86062744Y-69461009D01*
X86062744Y-69461009D02*
X85967506Y-69508628D01*
X85967506Y-69508628D02*
X85586554Y-69508628D01*
X86586554Y-69984819D02*
X86586554Y-68984819D01*
X87253220Y-68984819D02*
X87443696Y-68984819D01*
X87443696Y-68984819D02*
X87538934Y-69032438D01*
X87538934Y-69032438D02*
X87634172Y-69127676D01*
X87634172Y-69127676D02*
X87681791Y-69318152D01*
X87681791Y-69318152D02*
X87681791Y-69651485D01*
X87681791Y-69651485D02*
X87634172Y-69841961D01*
X87634172Y-69841961D02*
X87538934Y-69937200D01*
X87538934Y-69937200D02*
X87443696Y-69984819D01*
X87443696Y-69984819D02*
X87253220Y-69984819D01*
X87253220Y-69984819D02*
X87157982Y-69937200D01*
X87157982Y-69937200D02*
X87062744Y-69841961D01*
X87062744Y-69841961D02*
X87015125Y-69651485D01*
X87015125Y-69651485D02*
X87015125Y-69318152D01*
X87015125Y-69318152D02*
X87062744Y-69127676D01*
X87062744Y-69127676D02*
X87157982Y-69032438D01*
X87157982Y-69032438D02*
X87253220Y-68984819D01*
X88634172Y-69984819D02*
X88062744Y-69984819D01*
X88348458Y-69984819D02*
X88348458Y-68984819D01*
X88348458Y-68984819D02*
X88253220Y-69127676D01*
X88253220Y-69127676D02*
X88157982Y-69222914D01*
X88157982Y-69222914D02*
X88062744Y-69270533D01*
X89015125Y-69080057D02*
X89062744Y-69032438D01*
X89062744Y-69032438D02*
X89157982Y-68984819D01*
X89157982Y-68984819D02*
X89396077Y-68984819D01*
X89396077Y-68984819D02*
X89491315Y-69032438D01*
X89491315Y-69032438D02*
X89538934Y-69080057D01*
X89538934Y-69080057D02*
X89586553Y-69175295D01*
X89586553Y-69175295D02*
X89586553Y-69270533D01*
X89586553Y-69270533D02*
X89538934Y-69413390D01*
X89538934Y-69413390D02*
X88967506Y-69984819D01*
X88967506Y-69984819D02*
X89586553Y-69984819D01*
X89872268Y-69603866D02*
X89919887Y-69556247D01*
X89919887Y-69556247D02*
X90015125Y-69508628D01*
X90015125Y-69508628D02*
X90205601Y-69603866D01*
X90205601Y-69603866D02*
X90300839Y-69556247D01*
X90300839Y-69556247D02*
X90348458Y-69508628D01*
X91443696Y-68937200D02*
X90586554Y-70222914D01*
X91777030Y-68984819D02*
X91777030Y-69794342D01*
X91777030Y-69794342D02*
X91824649Y-69889580D01*
X91824649Y-69889580D02*
X91872268Y-69937200D01*
X91872268Y-69937200D02*
X91967506Y-69984819D01*
X91967506Y-69984819D02*
X92157982Y-69984819D01*
X92157982Y-69984819D02*
X92253220Y-69937200D01*
X92253220Y-69937200D02*
X92300839Y-69889580D01*
X92300839Y-69889580D02*
X92348458Y-69794342D01*
X92348458Y-69794342D02*
X92348458Y-68984819D01*
X93015125Y-68984819D02*
X93110363Y-68984819D01*
X93110363Y-68984819D02*
X93205601Y-69032438D01*
X93205601Y-69032438D02*
X93253220Y-69080057D01*
X93253220Y-69080057D02*
X93300839Y-69175295D01*
X93300839Y-69175295D02*
X93348458Y-69365771D01*
X93348458Y-69365771D02*
X93348458Y-69603866D01*
X93348458Y-69603866D02*
X93300839Y-69794342D01*
X93300839Y-69794342D02*
X93253220Y-69889580D01*
X93253220Y-69889580D02*
X93205601Y-69937200D01*
X93205601Y-69937200D02*
X93110363Y-69984819D01*
X93110363Y-69984819D02*
X93015125Y-69984819D01*
X93015125Y-69984819D02*
X92919887Y-69937200D01*
X92919887Y-69937200D02*
X92872268Y-69889580D01*
X92872268Y-69889580D02*
X92824649Y-69794342D01*
X92824649Y-69794342D02*
X92777030Y-69603866D01*
X92777030Y-69603866D02*
X92777030Y-69365771D01*
X92777030Y-69365771D02*
X92824649Y-69175295D01*
X92824649Y-69175295D02*
X92872268Y-69080057D01*
X92872268Y-69080057D02*
X92919887Y-69032438D01*
X92919887Y-69032438D02*
X93015125Y-68984819D01*
X94348458Y-69984819D02*
X94015125Y-69508628D01*
X93777030Y-69984819D02*
X93777030Y-68984819D01*
X93777030Y-68984819D02*
X94157982Y-68984819D01*
X94157982Y-68984819D02*
X94253220Y-69032438D01*
X94253220Y-69032438D02*
X94300839Y-69080057D01*
X94300839Y-69080057D02*
X94348458Y-69175295D01*
X94348458Y-69175295D02*
X94348458Y-69318152D01*
X94348458Y-69318152D02*
X94300839Y-69413390D01*
X94300839Y-69413390D02*
X94253220Y-69461009D01*
X94253220Y-69461009D02*
X94157982Y-69508628D01*
X94157982Y-69508628D02*
X93777030Y-69508628D01*
X94681792Y-68984819D02*
X95348458Y-69984819D01*
X95348458Y-68984819D02*
X94681792Y-69984819D01*
X95729411Y-69984819D02*
X95729411Y-68984819D01*
X95729411Y-68984819D02*
X95967506Y-68984819D01*
X95967506Y-68984819D02*
X96110363Y-69032438D01*
X96110363Y-69032438D02*
X96205601Y-69127676D01*
X96205601Y-69127676D02*
X96253220Y-69222914D01*
X96253220Y-69222914D02*
X96300839Y-69413390D01*
X96300839Y-69413390D02*
X96300839Y-69556247D01*
X96300839Y-69556247D02*
X96253220Y-69746723D01*
X96253220Y-69746723D02*
X96205601Y-69841961D01*
X96205601Y-69841961D02*
X96110363Y-69937200D01*
X96110363Y-69937200D02*
X95967506Y-69984819D01*
X95967506Y-69984819D02*
X95729411Y-69984819D01*
X77130588Y-94432438D02*
X77035350Y-94384819D01*
X77035350Y-94384819D02*
X76892493Y-94384819D01*
X76892493Y-94384819D02*
X76749636Y-94432438D01*
X76749636Y-94432438D02*
X76654398Y-94527676D01*
X76654398Y-94527676D02*
X76606779Y-94622914D01*
X76606779Y-94622914D02*
X76559160Y-94813390D01*
X76559160Y-94813390D02*
X76559160Y-94956247D01*
X76559160Y-94956247D02*
X76606779Y-95146723D01*
X76606779Y-95146723D02*
X76654398Y-95241961D01*
X76654398Y-95241961D02*
X76749636Y-95337200D01*
X76749636Y-95337200D02*
X76892493Y-95384819D01*
X76892493Y-95384819D02*
X76987731Y-95384819D01*
X76987731Y-95384819D02*
X77130588Y-95337200D01*
X77130588Y-95337200D02*
X77178207Y-95289580D01*
X77178207Y-95289580D02*
X77178207Y-94956247D01*
X77178207Y-94956247D02*
X76987731Y-94956247D01*
X77606779Y-95384819D02*
X77606779Y-94384819D01*
X77606779Y-94384819D02*
X77987731Y-94384819D01*
X77987731Y-94384819D02*
X78082969Y-94432438D01*
X78082969Y-94432438D02*
X78130588Y-94480057D01*
X78130588Y-94480057D02*
X78178207Y-94575295D01*
X78178207Y-94575295D02*
X78178207Y-94718152D01*
X78178207Y-94718152D02*
X78130588Y-94813390D01*
X78130588Y-94813390D02*
X78082969Y-94861009D01*
X78082969Y-94861009D02*
X77987731Y-94908628D01*
X77987731Y-94908628D02*
X77606779Y-94908628D01*
X78606779Y-95384819D02*
X78606779Y-94384819D01*
X79273445Y-94384819D02*
X79463921Y-94384819D01*
X79463921Y-94384819D02*
X79559159Y-94432438D01*
X79559159Y-94432438D02*
X79654397Y-94527676D01*
X79654397Y-94527676D02*
X79702016Y-94718152D01*
X79702016Y-94718152D02*
X79702016Y-95051485D01*
X79702016Y-95051485D02*
X79654397Y-95241961D01*
X79654397Y-95241961D02*
X79559159Y-95337200D01*
X79559159Y-95337200D02*
X79463921Y-95384819D01*
X79463921Y-95384819D02*
X79273445Y-95384819D01*
X79273445Y-95384819D02*
X79178207Y-95337200D01*
X79178207Y-95337200D02*
X79082969Y-95241961D01*
X79082969Y-95241961D02*
X79035350Y-95051485D01*
X79035350Y-95051485D02*
X79035350Y-94718152D01*
X79035350Y-94718152D02*
X79082969Y-94527676D01*
X79082969Y-94527676D02*
X79178207Y-94432438D01*
X79178207Y-94432438D02*
X79273445Y-94384819D01*
X80082969Y-94480057D02*
X80130588Y-94432438D01*
X80130588Y-94432438D02*
X80225826Y-94384819D01*
X80225826Y-94384819D02*
X80463921Y-94384819D01*
X80463921Y-94384819D02*
X80559159Y-94432438D01*
X80559159Y-94432438D02*
X80606778Y-94480057D01*
X80606778Y-94480057D02*
X80654397Y-94575295D01*
X80654397Y-94575295D02*
X80654397Y-94670533D01*
X80654397Y-94670533D02*
X80606778Y-94813390D01*
X80606778Y-94813390D02*
X80035350Y-95384819D01*
X80035350Y-95384819D02*
X80654397Y-95384819D01*
X81559159Y-94384819D02*
X81082969Y-94384819D01*
X81082969Y-94384819D02*
X81035350Y-94861009D01*
X81035350Y-94861009D02*
X81082969Y-94813390D01*
X81082969Y-94813390D02*
X81178207Y-94765771D01*
X81178207Y-94765771D02*
X81416302Y-94765771D01*
X81416302Y-94765771D02*
X81511540Y-94813390D01*
X81511540Y-94813390D02*
X81559159Y-94861009D01*
X81559159Y-94861009D02*
X81606778Y-94956247D01*
X81606778Y-94956247D02*
X81606778Y-95194342D01*
X81606778Y-95194342D02*
X81559159Y-95289580D01*
X81559159Y-95289580D02*
X81511540Y-95337200D01*
X81511540Y-95337200D02*
X81416302Y-95384819D01*
X81416302Y-95384819D02*
X81178207Y-95384819D01*
X81178207Y-95384819D02*
X81082969Y-95337200D01*
X81082969Y-95337200D02*
X81035350Y-95289580D01*
X81892493Y-95003866D02*
X81940112Y-94956247D01*
X81940112Y-94956247D02*
X82035350Y-94908628D01*
X82035350Y-94908628D02*
X82225826Y-95003866D01*
X82225826Y-95003866D02*
X82321064Y-94956247D01*
X82321064Y-94956247D02*
X82368683Y-94908628D01*
X77130588Y-91892438D02*
X77035350Y-91844819D01*
X77035350Y-91844819D02*
X76892493Y-91844819D01*
X76892493Y-91844819D02*
X76749636Y-91892438D01*
X76749636Y-91892438D02*
X76654398Y-91987676D01*
X76654398Y-91987676D02*
X76606779Y-92082914D01*
X76606779Y-92082914D02*
X76559160Y-92273390D01*
X76559160Y-92273390D02*
X76559160Y-92416247D01*
X76559160Y-92416247D02*
X76606779Y-92606723D01*
X76606779Y-92606723D02*
X76654398Y-92701961D01*
X76654398Y-92701961D02*
X76749636Y-92797200D01*
X76749636Y-92797200D02*
X76892493Y-92844819D01*
X76892493Y-92844819D02*
X76987731Y-92844819D01*
X76987731Y-92844819D02*
X77130588Y-92797200D01*
X77130588Y-92797200D02*
X77178207Y-92749580D01*
X77178207Y-92749580D02*
X77178207Y-92416247D01*
X77178207Y-92416247D02*
X76987731Y-92416247D01*
X77606779Y-92844819D02*
X77606779Y-91844819D01*
X77606779Y-91844819D02*
X77987731Y-91844819D01*
X77987731Y-91844819D02*
X78082969Y-91892438D01*
X78082969Y-91892438D02*
X78130588Y-91940057D01*
X78130588Y-91940057D02*
X78178207Y-92035295D01*
X78178207Y-92035295D02*
X78178207Y-92178152D01*
X78178207Y-92178152D02*
X78130588Y-92273390D01*
X78130588Y-92273390D02*
X78082969Y-92321009D01*
X78082969Y-92321009D02*
X77987731Y-92368628D01*
X77987731Y-92368628D02*
X77606779Y-92368628D01*
X78606779Y-92844819D02*
X78606779Y-91844819D01*
X79273445Y-91844819D02*
X79463921Y-91844819D01*
X79463921Y-91844819D02*
X79559159Y-91892438D01*
X79559159Y-91892438D02*
X79654397Y-91987676D01*
X79654397Y-91987676D02*
X79702016Y-92178152D01*
X79702016Y-92178152D02*
X79702016Y-92511485D01*
X79702016Y-92511485D02*
X79654397Y-92701961D01*
X79654397Y-92701961D02*
X79559159Y-92797200D01*
X79559159Y-92797200D02*
X79463921Y-92844819D01*
X79463921Y-92844819D02*
X79273445Y-92844819D01*
X79273445Y-92844819D02*
X79178207Y-92797200D01*
X79178207Y-92797200D02*
X79082969Y-92701961D01*
X79082969Y-92701961D02*
X79035350Y-92511485D01*
X79035350Y-92511485D02*
X79035350Y-92178152D01*
X79035350Y-92178152D02*
X79082969Y-91987676D01*
X79082969Y-91987676D02*
X79178207Y-91892438D01*
X79178207Y-91892438D02*
X79273445Y-91844819D01*
X80082969Y-91940057D02*
X80130588Y-91892438D01*
X80130588Y-91892438D02*
X80225826Y-91844819D01*
X80225826Y-91844819D02*
X80463921Y-91844819D01*
X80463921Y-91844819D02*
X80559159Y-91892438D01*
X80559159Y-91892438D02*
X80606778Y-91940057D01*
X80606778Y-91940057D02*
X80654397Y-92035295D01*
X80654397Y-92035295D02*
X80654397Y-92130533D01*
X80654397Y-92130533D02*
X80606778Y-92273390D01*
X80606778Y-92273390D02*
X80035350Y-92844819D01*
X80035350Y-92844819D02*
X80654397Y-92844819D01*
X81511540Y-91844819D02*
X81321064Y-91844819D01*
X81321064Y-91844819D02*
X81225826Y-91892438D01*
X81225826Y-91892438D02*
X81178207Y-91940057D01*
X81178207Y-91940057D02*
X81082969Y-92082914D01*
X81082969Y-92082914D02*
X81035350Y-92273390D01*
X81035350Y-92273390D02*
X81035350Y-92654342D01*
X81035350Y-92654342D02*
X81082969Y-92749580D01*
X81082969Y-92749580D02*
X81130588Y-92797200D01*
X81130588Y-92797200D02*
X81225826Y-92844819D01*
X81225826Y-92844819D02*
X81416302Y-92844819D01*
X81416302Y-92844819D02*
X81511540Y-92797200D01*
X81511540Y-92797200D02*
X81559159Y-92749580D01*
X81559159Y-92749580D02*
X81606778Y-92654342D01*
X81606778Y-92654342D02*
X81606778Y-92416247D01*
X81606778Y-92416247D02*
X81559159Y-92321009D01*
X81559159Y-92321009D02*
X81511540Y-92273390D01*
X81511540Y-92273390D02*
X81416302Y-92225771D01*
X81416302Y-92225771D02*
X81225826Y-92225771D01*
X81225826Y-92225771D02*
X81130588Y-92273390D01*
X81130588Y-92273390D02*
X81082969Y-92321009D01*
X81082969Y-92321009D02*
X81035350Y-92416247D01*
X81892493Y-92463866D02*
X81940112Y-92416247D01*
X81940112Y-92416247D02*
X82035350Y-92368628D01*
X82035350Y-92368628D02*
X82225826Y-92463866D01*
X82225826Y-92463866D02*
X82321064Y-92416247D01*
X82321064Y-92416247D02*
X82368683Y-92368628D01*
X92689895Y-112553419D02*
X92689895Y-113362942D01*
X92689895Y-113362942D02*
X92737514Y-113458180D01*
X92737514Y-113458180D02*
X92785133Y-113505800D01*
X92785133Y-113505800D02*
X92880371Y-113553419D01*
X92880371Y-113553419D02*
X93070847Y-113553419D01*
X93070847Y-113553419D02*
X93166085Y-113505800D01*
X93166085Y-113505800D02*
X93213704Y-113458180D01*
X93213704Y-113458180D02*
X93261323Y-113362942D01*
X93261323Y-113362942D02*
X93261323Y-112553419D01*
X93689895Y-113505800D02*
X93832752Y-113553419D01*
X93832752Y-113553419D02*
X94070847Y-113553419D01*
X94070847Y-113553419D02*
X94166085Y-113505800D01*
X94166085Y-113505800D02*
X94213704Y-113458180D01*
X94213704Y-113458180D02*
X94261323Y-113362942D01*
X94261323Y-113362942D02*
X94261323Y-113267704D01*
X94261323Y-113267704D02*
X94213704Y-113172466D01*
X94213704Y-113172466D02*
X94166085Y-113124847D01*
X94166085Y-113124847D02*
X94070847Y-113077228D01*
X94070847Y-113077228D02*
X93880371Y-113029609D01*
X93880371Y-113029609D02*
X93785133Y-112981990D01*
X93785133Y-112981990D02*
X93737514Y-112934371D01*
X93737514Y-112934371D02*
X93689895Y-112839133D01*
X93689895Y-112839133D02*
X93689895Y-112743895D01*
X93689895Y-112743895D02*
X93737514Y-112648657D01*
X93737514Y-112648657D02*
X93785133Y-112601038D01*
X93785133Y-112601038D02*
X93880371Y-112553419D01*
X93880371Y-112553419D02*
X94118466Y-112553419D01*
X94118466Y-112553419D02*
X94261323Y-112601038D01*
X95023228Y-113029609D02*
X95166085Y-113077228D01*
X95166085Y-113077228D02*
X95213704Y-113124847D01*
X95213704Y-113124847D02*
X95261323Y-113220085D01*
X95261323Y-113220085D02*
X95261323Y-113362942D01*
X95261323Y-113362942D02*
X95213704Y-113458180D01*
X95213704Y-113458180D02*
X95166085Y-113505800D01*
X95166085Y-113505800D02*
X95070847Y-113553419D01*
X95070847Y-113553419D02*
X94689895Y-113553419D01*
X94689895Y-113553419D02*
X94689895Y-112553419D01*
X94689895Y-112553419D02*
X95023228Y-112553419D01*
X95023228Y-112553419D02*
X95118466Y-112601038D01*
X95118466Y-112601038D02*
X95166085Y-112648657D01*
X95166085Y-112648657D02*
X95213704Y-112743895D01*
X95213704Y-112743895D02*
X95213704Y-112839133D01*
X95213704Y-112839133D02*
X95166085Y-112934371D01*
X95166085Y-112934371D02*
X95118466Y-112981990D01*
X95118466Y-112981990D02*
X95023228Y-113029609D01*
X95023228Y-113029609D02*
X94689895Y-113029609D01*
X77130588Y-86812438D02*
X77035350Y-86764819D01*
X77035350Y-86764819D02*
X76892493Y-86764819D01*
X76892493Y-86764819D02*
X76749636Y-86812438D01*
X76749636Y-86812438D02*
X76654398Y-86907676D01*
X76654398Y-86907676D02*
X76606779Y-87002914D01*
X76606779Y-87002914D02*
X76559160Y-87193390D01*
X76559160Y-87193390D02*
X76559160Y-87336247D01*
X76559160Y-87336247D02*
X76606779Y-87526723D01*
X76606779Y-87526723D02*
X76654398Y-87621961D01*
X76654398Y-87621961D02*
X76749636Y-87717200D01*
X76749636Y-87717200D02*
X76892493Y-87764819D01*
X76892493Y-87764819D02*
X76987731Y-87764819D01*
X76987731Y-87764819D02*
X77130588Y-87717200D01*
X77130588Y-87717200D02*
X77178207Y-87669580D01*
X77178207Y-87669580D02*
X77178207Y-87336247D01*
X77178207Y-87336247D02*
X76987731Y-87336247D01*
X77606779Y-87764819D02*
X77606779Y-86764819D01*
X77606779Y-86764819D02*
X77987731Y-86764819D01*
X77987731Y-86764819D02*
X78082969Y-86812438D01*
X78082969Y-86812438D02*
X78130588Y-86860057D01*
X78130588Y-86860057D02*
X78178207Y-86955295D01*
X78178207Y-86955295D02*
X78178207Y-87098152D01*
X78178207Y-87098152D02*
X78130588Y-87193390D01*
X78130588Y-87193390D02*
X78082969Y-87241009D01*
X78082969Y-87241009D02*
X77987731Y-87288628D01*
X77987731Y-87288628D02*
X77606779Y-87288628D01*
X78606779Y-87764819D02*
X78606779Y-86764819D01*
X79273445Y-86764819D02*
X79463921Y-86764819D01*
X79463921Y-86764819D02*
X79559159Y-86812438D01*
X79559159Y-86812438D02*
X79654397Y-86907676D01*
X79654397Y-86907676D02*
X79702016Y-87098152D01*
X79702016Y-87098152D02*
X79702016Y-87431485D01*
X79702016Y-87431485D02*
X79654397Y-87621961D01*
X79654397Y-87621961D02*
X79559159Y-87717200D01*
X79559159Y-87717200D02*
X79463921Y-87764819D01*
X79463921Y-87764819D02*
X79273445Y-87764819D01*
X79273445Y-87764819D02*
X79178207Y-87717200D01*
X79178207Y-87717200D02*
X79082969Y-87621961D01*
X79082969Y-87621961D02*
X79035350Y-87431485D01*
X79035350Y-87431485D02*
X79035350Y-87098152D01*
X79035350Y-87098152D02*
X79082969Y-86907676D01*
X79082969Y-86907676D02*
X79178207Y-86812438D01*
X79178207Y-86812438D02*
X79273445Y-86764819D01*
X80559159Y-86764819D02*
X80368683Y-86764819D01*
X80368683Y-86764819D02*
X80273445Y-86812438D01*
X80273445Y-86812438D02*
X80225826Y-86860057D01*
X80225826Y-86860057D02*
X80130588Y-87002914D01*
X80130588Y-87002914D02*
X80082969Y-87193390D01*
X80082969Y-87193390D02*
X80082969Y-87574342D01*
X80082969Y-87574342D02*
X80130588Y-87669580D01*
X80130588Y-87669580D02*
X80178207Y-87717200D01*
X80178207Y-87717200D02*
X80273445Y-87764819D01*
X80273445Y-87764819D02*
X80463921Y-87764819D01*
X80463921Y-87764819D02*
X80559159Y-87717200D01*
X80559159Y-87717200D02*
X80606778Y-87669580D01*
X80606778Y-87669580D02*
X80654397Y-87574342D01*
X80654397Y-87574342D02*
X80654397Y-87336247D01*
X80654397Y-87336247D02*
X80606778Y-87241009D01*
X80606778Y-87241009D02*
X80559159Y-87193390D01*
X80559159Y-87193390D02*
X80463921Y-87145771D01*
X80463921Y-87145771D02*
X80273445Y-87145771D01*
X80273445Y-87145771D02*
X80178207Y-87193390D01*
X80178207Y-87193390D02*
X80130588Y-87241009D01*
X80130588Y-87241009D02*
X80082969Y-87336247D01*
X80940112Y-87383866D02*
X80987731Y-87336247D01*
X80987731Y-87336247D02*
X81082969Y-87288628D01*
X81082969Y-87288628D02*
X81273445Y-87383866D01*
X81273445Y-87383866D02*
X81368683Y-87336247D01*
X81368683Y-87336247D02*
X81416302Y-87288628D01*
X77130588Y-99512438D02*
X77035350Y-99464819D01*
X77035350Y-99464819D02*
X76892493Y-99464819D01*
X76892493Y-99464819D02*
X76749636Y-99512438D01*
X76749636Y-99512438D02*
X76654398Y-99607676D01*
X76654398Y-99607676D02*
X76606779Y-99702914D01*
X76606779Y-99702914D02*
X76559160Y-99893390D01*
X76559160Y-99893390D02*
X76559160Y-100036247D01*
X76559160Y-100036247D02*
X76606779Y-100226723D01*
X76606779Y-100226723D02*
X76654398Y-100321961D01*
X76654398Y-100321961D02*
X76749636Y-100417200D01*
X76749636Y-100417200D02*
X76892493Y-100464819D01*
X76892493Y-100464819D02*
X76987731Y-100464819D01*
X76987731Y-100464819D02*
X77130588Y-100417200D01*
X77130588Y-100417200D02*
X77178207Y-100369580D01*
X77178207Y-100369580D02*
X77178207Y-100036247D01*
X77178207Y-100036247D02*
X76987731Y-100036247D01*
X77606779Y-100464819D02*
X77606779Y-99464819D01*
X77606779Y-99464819D02*
X78178207Y-100464819D01*
X78178207Y-100464819D02*
X78178207Y-99464819D01*
X78654398Y-100464819D02*
X78654398Y-99464819D01*
X78654398Y-99464819D02*
X78892493Y-99464819D01*
X78892493Y-99464819D02*
X79035350Y-99512438D01*
X79035350Y-99512438D02*
X79130588Y-99607676D01*
X79130588Y-99607676D02*
X79178207Y-99702914D01*
X79178207Y-99702914D02*
X79225826Y-99893390D01*
X79225826Y-99893390D02*
X79225826Y-100036247D01*
X79225826Y-100036247D02*
X79178207Y-100226723D01*
X79178207Y-100226723D02*
X79130588Y-100321961D01*
X79130588Y-100321961D02*
X79035350Y-100417200D01*
X79035350Y-100417200D02*
X78892493Y-100464819D01*
X78892493Y-100464819D02*
X78654398Y-100464819D01*
X77130588Y-71572438D02*
X77035350Y-71524819D01*
X77035350Y-71524819D02*
X76892493Y-71524819D01*
X76892493Y-71524819D02*
X76749636Y-71572438D01*
X76749636Y-71572438D02*
X76654398Y-71667676D01*
X76654398Y-71667676D02*
X76606779Y-71762914D01*
X76606779Y-71762914D02*
X76559160Y-71953390D01*
X76559160Y-71953390D02*
X76559160Y-72096247D01*
X76559160Y-72096247D02*
X76606779Y-72286723D01*
X76606779Y-72286723D02*
X76654398Y-72381961D01*
X76654398Y-72381961D02*
X76749636Y-72477200D01*
X76749636Y-72477200D02*
X76892493Y-72524819D01*
X76892493Y-72524819D02*
X76987731Y-72524819D01*
X76987731Y-72524819D02*
X77130588Y-72477200D01*
X77130588Y-72477200D02*
X77178207Y-72429580D01*
X77178207Y-72429580D02*
X77178207Y-72096247D01*
X77178207Y-72096247D02*
X76987731Y-72096247D01*
X77606779Y-72524819D02*
X77606779Y-71524819D01*
X77606779Y-71524819D02*
X77987731Y-71524819D01*
X77987731Y-71524819D02*
X78082969Y-71572438D01*
X78082969Y-71572438D02*
X78130588Y-71620057D01*
X78130588Y-71620057D02*
X78178207Y-71715295D01*
X78178207Y-71715295D02*
X78178207Y-71858152D01*
X78178207Y-71858152D02*
X78130588Y-71953390D01*
X78130588Y-71953390D02*
X78082969Y-72001009D01*
X78082969Y-72001009D02*
X77987731Y-72048628D01*
X77987731Y-72048628D02*
X77606779Y-72048628D01*
X78606779Y-72524819D02*
X78606779Y-71524819D01*
X79273445Y-71524819D02*
X79463921Y-71524819D01*
X79463921Y-71524819D02*
X79559159Y-71572438D01*
X79559159Y-71572438D02*
X79654397Y-71667676D01*
X79654397Y-71667676D02*
X79702016Y-71858152D01*
X79702016Y-71858152D02*
X79702016Y-72191485D01*
X79702016Y-72191485D02*
X79654397Y-72381961D01*
X79654397Y-72381961D02*
X79559159Y-72477200D01*
X79559159Y-72477200D02*
X79463921Y-72524819D01*
X79463921Y-72524819D02*
X79273445Y-72524819D01*
X79273445Y-72524819D02*
X79178207Y-72477200D01*
X79178207Y-72477200D02*
X79082969Y-72381961D01*
X79082969Y-72381961D02*
X79035350Y-72191485D01*
X79035350Y-72191485D02*
X79035350Y-71858152D01*
X79035350Y-71858152D02*
X79082969Y-71667676D01*
X79082969Y-71667676D02*
X79178207Y-71572438D01*
X79178207Y-71572438D02*
X79273445Y-71524819D01*
X80035350Y-71524819D02*
X80654397Y-71524819D01*
X80654397Y-71524819D02*
X80321064Y-71905771D01*
X80321064Y-71905771D02*
X80463921Y-71905771D01*
X80463921Y-71905771D02*
X80559159Y-71953390D01*
X80559159Y-71953390D02*
X80606778Y-72001009D01*
X80606778Y-72001009D02*
X80654397Y-72096247D01*
X80654397Y-72096247D02*
X80654397Y-72334342D01*
X80654397Y-72334342D02*
X80606778Y-72429580D01*
X80606778Y-72429580D02*
X80559159Y-72477200D01*
X80559159Y-72477200D02*
X80463921Y-72524819D01*
X80463921Y-72524819D02*
X80178207Y-72524819D01*
X80178207Y-72524819D02*
X80082969Y-72477200D01*
X80082969Y-72477200D02*
X80035350Y-72429580D01*
X80940112Y-72143866D02*
X80987731Y-72096247D01*
X80987731Y-72096247D02*
X81082969Y-72048628D01*
X81082969Y-72048628D02*
X81273445Y-72143866D01*
X81273445Y-72143866D02*
X81368683Y-72096247D01*
X81368683Y-72096247D02*
X81416302Y-72048628D01*
X77356562Y-112553419D02*
X77356562Y-113362942D01*
X77356562Y-113362942D02*
X77404181Y-113458180D01*
X77404181Y-113458180D02*
X77451800Y-113505800D01*
X77451800Y-113505800D02*
X77547038Y-113553419D01*
X77547038Y-113553419D02*
X77737514Y-113553419D01*
X77737514Y-113553419D02*
X77832752Y-113505800D01*
X77832752Y-113505800D02*
X77880371Y-113458180D01*
X77880371Y-113458180D02*
X77927990Y-113362942D01*
X77927990Y-113362942D02*
X77927990Y-112553419D01*
X78356562Y-113267704D02*
X78832752Y-113267704D01*
X78261324Y-113553419D02*
X78594657Y-112553419D01*
X78594657Y-112553419D02*
X78927990Y-113553419D01*
X79832752Y-113553419D02*
X79499419Y-113077228D01*
X79261324Y-113553419D02*
X79261324Y-112553419D01*
X79261324Y-112553419D02*
X79642276Y-112553419D01*
X79642276Y-112553419D02*
X79737514Y-112601038D01*
X79737514Y-112601038D02*
X79785133Y-112648657D01*
X79785133Y-112648657D02*
X79832752Y-112743895D01*
X79832752Y-112743895D02*
X79832752Y-112886752D01*
X79832752Y-112886752D02*
X79785133Y-112981990D01*
X79785133Y-112981990D02*
X79737514Y-113029609D01*
X79737514Y-113029609D02*
X79642276Y-113077228D01*
X79642276Y-113077228D02*
X79261324Y-113077228D01*
X80118467Y-112553419D02*
X80689895Y-112553419D01*
X80404181Y-113553419D02*
X80404181Y-112553419D01*
X77130588Y-76652438D02*
X77035350Y-76604819D01*
X77035350Y-76604819D02*
X76892493Y-76604819D01*
X76892493Y-76604819D02*
X76749636Y-76652438D01*
X76749636Y-76652438D02*
X76654398Y-76747676D01*
X76654398Y-76747676D02*
X76606779Y-76842914D01*
X76606779Y-76842914D02*
X76559160Y-77033390D01*
X76559160Y-77033390D02*
X76559160Y-77176247D01*
X76559160Y-77176247D02*
X76606779Y-77366723D01*
X76606779Y-77366723D02*
X76654398Y-77461961D01*
X76654398Y-77461961D02*
X76749636Y-77557200D01*
X76749636Y-77557200D02*
X76892493Y-77604819D01*
X76892493Y-77604819D02*
X76987731Y-77604819D01*
X76987731Y-77604819D02*
X77130588Y-77557200D01*
X77130588Y-77557200D02*
X77178207Y-77509580D01*
X77178207Y-77509580D02*
X77178207Y-77176247D01*
X77178207Y-77176247D02*
X76987731Y-77176247D01*
X77606779Y-77604819D02*
X77606779Y-76604819D01*
X77606779Y-76604819D02*
X77987731Y-76604819D01*
X77987731Y-76604819D02*
X78082969Y-76652438D01*
X78082969Y-76652438D02*
X78130588Y-76700057D01*
X78130588Y-76700057D02*
X78178207Y-76795295D01*
X78178207Y-76795295D02*
X78178207Y-76938152D01*
X78178207Y-76938152D02*
X78130588Y-77033390D01*
X78130588Y-77033390D02*
X78082969Y-77081009D01*
X78082969Y-77081009D02*
X77987731Y-77128628D01*
X77987731Y-77128628D02*
X77606779Y-77128628D01*
X78606779Y-77604819D02*
X78606779Y-76604819D01*
X79273445Y-76604819D02*
X79463921Y-76604819D01*
X79463921Y-76604819D02*
X79559159Y-76652438D01*
X79559159Y-76652438D02*
X79654397Y-76747676D01*
X79654397Y-76747676D02*
X79702016Y-76938152D01*
X79702016Y-76938152D02*
X79702016Y-77271485D01*
X79702016Y-77271485D02*
X79654397Y-77461961D01*
X79654397Y-77461961D02*
X79559159Y-77557200D01*
X79559159Y-77557200D02*
X79463921Y-77604819D01*
X79463921Y-77604819D02*
X79273445Y-77604819D01*
X79273445Y-77604819D02*
X79178207Y-77557200D01*
X79178207Y-77557200D02*
X79082969Y-77461961D01*
X79082969Y-77461961D02*
X79035350Y-77271485D01*
X79035350Y-77271485D02*
X79035350Y-76938152D01*
X79035350Y-76938152D02*
X79082969Y-76747676D01*
X79082969Y-76747676D02*
X79178207Y-76652438D01*
X79178207Y-76652438D02*
X79273445Y-76604819D01*
X80606778Y-76604819D02*
X80130588Y-76604819D01*
X80130588Y-76604819D02*
X80082969Y-77081009D01*
X80082969Y-77081009D02*
X80130588Y-77033390D01*
X80130588Y-77033390D02*
X80225826Y-76985771D01*
X80225826Y-76985771D02*
X80463921Y-76985771D01*
X80463921Y-76985771D02*
X80559159Y-77033390D01*
X80559159Y-77033390D02*
X80606778Y-77081009D01*
X80606778Y-77081009D02*
X80654397Y-77176247D01*
X80654397Y-77176247D02*
X80654397Y-77414342D01*
X80654397Y-77414342D02*
X80606778Y-77509580D01*
X80606778Y-77509580D02*
X80559159Y-77557200D01*
X80559159Y-77557200D02*
X80463921Y-77604819D01*
X80463921Y-77604819D02*
X80225826Y-77604819D01*
X80225826Y-77604819D02*
X80130588Y-77557200D01*
X80130588Y-77557200D02*
X80082969Y-77509580D01*
X80940112Y-77223866D02*
X80987731Y-77176247D01*
X80987731Y-77176247D02*
X81082969Y-77128628D01*
X81082969Y-77128628D02*
X81273445Y-77223866D01*
X81273445Y-77223866D02*
X81368683Y-77176247D01*
X81368683Y-77176247D02*
X81416302Y-77128628D01*
X76606779Y-103004819D02*
X76606779Y-102004819D01*
X76606779Y-102004819D02*
X77178207Y-103004819D01*
X77178207Y-103004819D02*
X77178207Y-102004819D01*
X78225826Y-102909580D02*
X78178207Y-102957200D01*
X78178207Y-102957200D02*
X78035350Y-103004819D01*
X78035350Y-103004819D02*
X77940112Y-103004819D01*
X77940112Y-103004819D02*
X77797255Y-102957200D01*
X77797255Y-102957200D02*
X77702017Y-102861961D01*
X77702017Y-102861961D02*
X77654398Y-102766723D01*
X77654398Y-102766723D02*
X77606779Y-102576247D01*
X77606779Y-102576247D02*
X77606779Y-102433390D01*
X77606779Y-102433390D02*
X77654398Y-102242914D01*
X77654398Y-102242914D02*
X77702017Y-102147676D01*
X77702017Y-102147676D02*
X77797255Y-102052438D01*
X77797255Y-102052438D02*
X77940112Y-102004819D01*
X77940112Y-102004819D02*
X78035350Y-102004819D01*
X78035350Y-102004819D02*
X78178207Y-102052438D01*
X78178207Y-102052438D02*
X78225826Y-102100057D01*
X77130588Y-69032438D02*
X77035350Y-68984819D01*
X77035350Y-68984819D02*
X76892493Y-68984819D01*
X76892493Y-68984819D02*
X76749636Y-69032438D01*
X76749636Y-69032438D02*
X76654398Y-69127676D01*
X76654398Y-69127676D02*
X76606779Y-69222914D01*
X76606779Y-69222914D02*
X76559160Y-69413390D01*
X76559160Y-69413390D02*
X76559160Y-69556247D01*
X76559160Y-69556247D02*
X76606779Y-69746723D01*
X76606779Y-69746723D02*
X76654398Y-69841961D01*
X76654398Y-69841961D02*
X76749636Y-69937200D01*
X76749636Y-69937200D02*
X76892493Y-69984819D01*
X76892493Y-69984819D02*
X76987731Y-69984819D01*
X76987731Y-69984819D02*
X77130588Y-69937200D01*
X77130588Y-69937200D02*
X77178207Y-69889580D01*
X77178207Y-69889580D02*
X77178207Y-69556247D01*
X77178207Y-69556247D02*
X76987731Y-69556247D01*
X77606779Y-69984819D02*
X77606779Y-68984819D01*
X77606779Y-68984819D02*
X77987731Y-68984819D01*
X77987731Y-68984819D02*
X78082969Y-69032438D01*
X78082969Y-69032438D02*
X78130588Y-69080057D01*
X78130588Y-69080057D02*
X78178207Y-69175295D01*
X78178207Y-69175295D02*
X78178207Y-69318152D01*
X78178207Y-69318152D02*
X78130588Y-69413390D01*
X78130588Y-69413390D02*
X78082969Y-69461009D01*
X78082969Y-69461009D02*
X77987731Y-69508628D01*
X77987731Y-69508628D02*
X77606779Y-69508628D01*
X78606779Y-69984819D02*
X78606779Y-68984819D01*
X79273445Y-68984819D02*
X79463921Y-68984819D01*
X79463921Y-68984819D02*
X79559159Y-69032438D01*
X79559159Y-69032438D02*
X79654397Y-69127676D01*
X79654397Y-69127676D02*
X79702016Y-69318152D01*
X79702016Y-69318152D02*
X79702016Y-69651485D01*
X79702016Y-69651485D02*
X79654397Y-69841961D01*
X79654397Y-69841961D02*
X79559159Y-69937200D01*
X79559159Y-69937200D02*
X79463921Y-69984819D01*
X79463921Y-69984819D02*
X79273445Y-69984819D01*
X79273445Y-69984819D02*
X79178207Y-69937200D01*
X79178207Y-69937200D02*
X79082969Y-69841961D01*
X79082969Y-69841961D02*
X79035350Y-69651485D01*
X79035350Y-69651485D02*
X79035350Y-69318152D01*
X79035350Y-69318152D02*
X79082969Y-69127676D01*
X79082969Y-69127676D02*
X79178207Y-69032438D01*
X79178207Y-69032438D02*
X79273445Y-68984819D01*
X80082969Y-69080057D02*
X80130588Y-69032438D01*
X80130588Y-69032438D02*
X80225826Y-68984819D01*
X80225826Y-68984819D02*
X80463921Y-68984819D01*
X80463921Y-68984819D02*
X80559159Y-69032438D01*
X80559159Y-69032438D02*
X80606778Y-69080057D01*
X80606778Y-69080057D02*
X80654397Y-69175295D01*
X80654397Y-69175295D02*
X80654397Y-69270533D01*
X80654397Y-69270533D02*
X80606778Y-69413390D01*
X80606778Y-69413390D02*
X80035350Y-69984819D01*
X80035350Y-69984819D02*
X80654397Y-69984819D01*
X80940112Y-69603866D02*
X80987731Y-69556247D01*
X80987731Y-69556247D02*
X81082969Y-69508628D01*
X81082969Y-69508628D02*
X81273445Y-69603866D01*
X81273445Y-69603866D02*
X81368683Y-69556247D01*
X81368683Y-69556247D02*
X81416302Y-69508628D01*
X94205601Y-91892438D02*
X94110363Y-91844819D01*
X94110363Y-91844819D02*
X93967506Y-91844819D01*
X93967506Y-91844819D02*
X93824649Y-91892438D01*
X93824649Y-91892438D02*
X93729411Y-91987676D01*
X93729411Y-91987676D02*
X93681792Y-92082914D01*
X93681792Y-92082914D02*
X93634173Y-92273390D01*
X93634173Y-92273390D02*
X93634173Y-92416247D01*
X93634173Y-92416247D02*
X93681792Y-92606723D01*
X93681792Y-92606723D02*
X93729411Y-92701961D01*
X93729411Y-92701961D02*
X93824649Y-92797200D01*
X93824649Y-92797200D02*
X93967506Y-92844819D01*
X93967506Y-92844819D02*
X94062744Y-92844819D01*
X94062744Y-92844819D02*
X94205601Y-92797200D01*
X94205601Y-92797200D02*
X94253220Y-92749580D01*
X94253220Y-92749580D02*
X94253220Y-92416247D01*
X94253220Y-92416247D02*
X94062744Y-92416247D01*
X94681792Y-92844819D02*
X94681792Y-91844819D01*
X94681792Y-91844819D02*
X95253220Y-92844819D01*
X95253220Y-92844819D02*
X95253220Y-91844819D01*
X95729411Y-92844819D02*
X95729411Y-91844819D01*
X95729411Y-91844819D02*
X95967506Y-91844819D01*
X95967506Y-91844819D02*
X96110363Y-91892438D01*
X96110363Y-91892438D02*
X96205601Y-91987676D01*
X96205601Y-91987676D02*
X96253220Y-92082914D01*
X96253220Y-92082914D02*
X96300839Y-92273390D01*
X96300839Y-92273390D02*
X96300839Y-92416247D01*
X96300839Y-92416247D02*
X96253220Y-92606723D01*
X96253220Y-92606723D02*
X96205601Y-92701961D01*
X96205601Y-92701961D02*
X96110363Y-92797200D01*
X96110363Y-92797200D02*
X95967506Y-92844819D01*
X95967506Y-92844819D02*
X95729411Y-92844819D01*
X84062744Y-94432438D02*
X83967506Y-94384819D01*
X83967506Y-94384819D02*
X83824649Y-94384819D01*
X83824649Y-94384819D02*
X83681792Y-94432438D01*
X83681792Y-94432438D02*
X83586554Y-94527676D01*
X83586554Y-94527676D02*
X83538935Y-94622914D01*
X83538935Y-94622914D02*
X83491316Y-94813390D01*
X83491316Y-94813390D02*
X83491316Y-94956247D01*
X83491316Y-94956247D02*
X83538935Y-95146723D01*
X83538935Y-95146723D02*
X83586554Y-95241961D01*
X83586554Y-95241961D02*
X83681792Y-95337200D01*
X83681792Y-95337200D02*
X83824649Y-95384819D01*
X83824649Y-95384819D02*
X83919887Y-95384819D01*
X83919887Y-95384819D02*
X84062744Y-95337200D01*
X84062744Y-95337200D02*
X84110363Y-95289580D01*
X84110363Y-95289580D02*
X84110363Y-94956247D01*
X84110363Y-94956247D02*
X83919887Y-94956247D01*
X84538935Y-95384819D02*
X84538935Y-94384819D01*
X84538935Y-94384819D02*
X84919887Y-94384819D01*
X84919887Y-94384819D02*
X85015125Y-94432438D01*
X85015125Y-94432438D02*
X85062744Y-94480057D01*
X85062744Y-94480057D02*
X85110363Y-94575295D01*
X85110363Y-94575295D02*
X85110363Y-94718152D01*
X85110363Y-94718152D02*
X85062744Y-94813390D01*
X85062744Y-94813390D02*
X85015125Y-94861009D01*
X85015125Y-94861009D02*
X84919887Y-94908628D01*
X84919887Y-94908628D02*
X84538935Y-94908628D01*
X85538935Y-95384819D02*
X85538935Y-94384819D01*
X86205601Y-94384819D02*
X86396077Y-94384819D01*
X86396077Y-94384819D02*
X86491315Y-94432438D01*
X86491315Y-94432438D02*
X86586553Y-94527676D01*
X86586553Y-94527676D02*
X86634172Y-94718152D01*
X86634172Y-94718152D02*
X86634172Y-95051485D01*
X86634172Y-95051485D02*
X86586553Y-95241961D01*
X86586553Y-95241961D02*
X86491315Y-95337200D01*
X86491315Y-95337200D02*
X86396077Y-95384819D01*
X86396077Y-95384819D02*
X86205601Y-95384819D01*
X86205601Y-95384819D02*
X86110363Y-95337200D01*
X86110363Y-95337200D02*
X86015125Y-95241961D01*
X86015125Y-95241961D02*
X85967506Y-95051485D01*
X85967506Y-95051485D02*
X85967506Y-94718152D01*
X85967506Y-94718152D02*
X86015125Y-94527676D01*
X86015125Y-94527676D02*
X86110363Y-94432438D01*
X86110363Y-94432438D02*
X86205601Y-94384819D01*
X87586553Y-95384819D02*
X87015125Y-95384819D01*
X87300839Y-95384819D02*
X87300839Y-94384819D01*
X87300839Y-94384819D02*
X87205601Y-94527676D01*
X87205601Y-94527676D02*
X87110363Y-94622914D01*
X87110363Y-94622914D02*
X87015125Y-94670533D01*
X88443696Y-94718152D02*
X88443696Y-95384819D01*
X88205601Y-94337200D02*
X87967506Y-95051485D01*
X87967506Y-95051485D02*
X88586553Y-95051485D01*
X88824649Y-95003866D02*
X88872268Y-94956247D01*
X88872268Y-94956247D02*
X88967506Y-94908628D01*
X88967506Y-94908628D02*
X89157982Y-95003866D01*
X89157982Y-95003866D02*
X89253220Y-94956247D01*
X89253220Y-94956247D02*
X89300839Y-94908628D01*
X90396077Y-94337200D02*
X89538935Y-95622914D01*
X90729411Y-94384819D02*
X90729411Y-95194342D01*
X90729411Y-95194342D02*
X90777030Y-95289580D01*
X90777030Y-95289580D02*
X90824649Y-95337200D01*
X90824649Y-95337200D02*
X90919887Y-95384819D01*
X90919887Y-95384819D02*
X91110363Y-95384819D01*
X91110363Y-95384819D02*
X91205601Y-95337200D01*
X91205601Y-95337200D02*
X91253220Y-95289580D01*
X91253220Y-95289580D02*
X91300839Y-95194342D01*
X91300839Y-95194342D02*
X91300839Y-94384819D01*
X91729411Y-95337200D02*
X91872268Y-95384819D01*
X91872268Y-95384819D02*
X92110363Y-95384819D01*
X92110363Y-95384819D02*
X92205601Y-95337200D01*
X92205601Y-95337200D02*
X92253220Y-95289580D01*
X92253220Y-95289580D02*
X92300839Y-95194342D01*
X92300839Y-95194342D02*
X92300839Y-95099104D01*
X92300839Y-95099104D02*
X92253220Y-95003866D01*
X92253220Y-95003866D02*
X92205601Y-94956247D01*
X92205601Y-94956247D02*
X92110363Y-94908628D01*
X92110363Y-94908628D02*
X91919887Y-94861009D01*
X91919887Y-94861009D02*
X91824649Y-94813390D01*
X91824649Y-94813390D02*
X91777030Y-94765771D01*
X91777030Y-94765771D02*
X91729411Y-94670533D01*
X91729411Y-94670533D02*
X91729411Y-94575295D01*
X91729411Y-94575295D02*
X91777030Y-94480057D01*
X91777030Y-94480057D02*
X91824649Y-94432438D01*
X91824649Y-94432438D02*
X91919887Y-94384819D01*
X91919887Y-94384819D02*
X92157982Y-94384819D01*
X92157982Y-94384819D02*
X92300839Y-94432438D01*
X93062744Y-94861009D02*
X93205601Y-94908628D01*
X93205601Y-94908628D02*
X93253220Y-94956247D01*
X93253220Y-94956247D02*
X93300839Y-95051485D01*
X93300839Y-95051485D02*
X93300839Y-95194342D01*
X93300839Y-95194342D02*
X93253220Y-95289580D01*
X93253220Y-95289580D02*
X93205601Y-95337200D01*
X93205601Y-95337200D02*
X93110363Y-95384819D01*
X93110363Y-95384819D02*
X92729411Y-95384819D01*
X92729411Y-95384819D02*
X92729411Y-94384819D01*
X92729411Y-94384819D02*
X93062744Y-94384819D01*
X93062744Y-94384819D02*
X93157982Y-94432438D01*
X93157982Y-94432438D02*
X93205601Y-94480057D01*
X93205601Y-94480057D02*
X93253220Y-94575295D01*
X93253220Y-94575295D02*
X93253220Y-94670533D01*
X93253220Y-94670533D02*
X93205601Y-94765771D01*
X93205601Y-94765771D02*
X93157982Y-94813390D01*
X93157982Y-94813390D02*
X93062744Y-94861009D01*
X93062744Y-94861009D02*
X92729411Y-94861009D01*
X93491316Y-95480057D02*
X94253220Y-95480057D01*
X94491316Y-95384819D02*
X94491316Y-94384819D01*
X94491316Y-94384819D02*
X94729411Y-94384819D01*
X94729411Y-94384819D02*
X94872268Y-94432438D01*
X94872268Y-94432438D02*
X94967506Y-94527676D01*
X94967506Y-94527676D02*
X95015125Y-94622914D01*
X95015125Y-94622914D02*
X95062744Y-94813390D01*
X95062744Y-94813390D02*
X95062744Y-94956247D01*
X95062744Y-94956247D02*
X95015125Y-95146723D01*
X95015125Y-95146723D02*
X94967506Y-95241961D01*
X94967506Y-95241961D02*
X94872268Y-95337200D01*
X94872268Y-95337200D02*
X94729411Y-95384819D01*
X94729411Y-95384819D02*
X94491316Y-95384819D01*
X95491316Y-95003866D02*
X96253221Y-95003866D01*
X95872268Y-95384819D02*
X95872268Y-94622914D01*
X77130588Y-84272438D02*
X77035350Y-84224819D01*
X77035350Y-84224819D02*
X76892493Y-84224819D01*
X76892493Y-84224819D02*
X76749636Y-84272438D01*
X76749636Y-84272438D02*
X76654398Y-84367676D01*
X76654398Y-84367676D02*
X76606779Y-84462914D01*
X76606779Y-84462914D02*
X76559160Y-84653390D01*
X76559160Y-84653390D02*
X76559160Y-84796247D01*
X76559160Y-84796247D02*
X76606779Y-84986723D01*
X76606779Y-84986723D02*
X76654398Y-85081961D01*
X76654398Y-85081961D02*
X76749636Y-85177200D01*
X76749636Y-85177200D02*
X76892493Y-85224819D01*
X76892493Y-85224819D02*
X76987731Y-85224819D01*
X76987731Y-85224819D02*
X77130588Y-85177200D01*
X77130588Y-85177200D02*
X77178207Y-85129580D01*
X77178207Y-85129580D02*
X77178207Y-84796247D01*
X77178207Y-84796247D02*
X76987731Y-84796247D01*
X77606779Y-85224819D02*
X77606779Y-84224819D01*
X77606779Y-84224819D02*
X77987731Y-84224819D01*
X77987731Y-84224819D02*
X78082969Y-84272438D01*
X78082969Y-84272438D02*
X78130588Y-84320057D01*
X78130588Y-84320057D02*
X78178207Y-84415295D01*
X78178207Y-84415295D02*
X78178207Y-84558152D01*
X78178207Y-84558152D02*
X78130588Y-84653390D01*
X78130588Y-84653390D02*
X78082969Y-84701009D01*
X78082969Y-84701009D02*
X77987731Y-84748628D01*
X77987731Y-84748628D02*
X77606779Y-84748628D01*
X78606779Y-85224819D02*
X78606779Y-84224819D01*
X79273445Y-84224819D02*
X79463921Y-84224819D01*
X79463921Y-84224819D02*
X79559159Y-84272438D01*
X79559159Y-84272438D02*
X79654397Y-84367676D01*
X79654397Y-84367676D02*
X79702016Y-84558152D01*
X79702016Y-84558152D02*
X79702016Y-84891485D01*
X79702016Y-84891485D02*
X79654397Y-85081961D01*
X79654397Y-85081961D02*
X79559159Y-85177200D01*
X79559159Y-85177200D02*
X79463921Y-85224819D01*
X79463921Y-85224819D02*
X79273445Y-85224819D01*
X79273445Y-85224819D02*
X79178207Y-85177200D01*
X79178207Y-85177200D02*
X79082969Y-85081961D01*
X79082969Y-85081961D02*
X79035350Y-84891485D01*
X79035350Y-84891485D02*
X79035350Y-84558152D01*
X79035350Y-84558152D02*
X79082969Y-84367676D01*
X79082969Y-84367676D02*
X79178207Y-84272438D01*
X79178207Y-84272438D02*
X79273445Y-84224819D01*
X80082969Y-84320057D02*
X80130588Y-84272438D01*
X80130588Y-84272438D02*
X80225826Y-84224819D01*
X80225826Y-84224819D02*
X80463921Y-84224819D01*
X80463921Y-84224819D02*
X80559159Y-84272438D01*
X80559159Y-84272438D02*
X80606778Y-84320057D01*
X80606778Y-84320057D02*
X80654397Y-84415295D01*
X80654397Y-84415295D02*
X80654397Y-84510533D01*
X80654397Y-84510533D02*
X80606778Y-84653390D01*
X80606778Y-84653390D02*
X80035350Y-85224819D01*
X80035350Y-85224819D02*
X80654397Y-85224819D01*
X80987731Y-84224819D02*
X81654397Y-84224819D01*
X81654397Y-84224819D02*
X81225826Y-85224819D01*
X81892493Y-84843866D02*
X81940112Y-84796247D01*
X81940112Y-84796247D02*
X82035350Y-84748628D01*
X82035350Y-84748628D02*
X82225826Y-84843866D01*
X82225826Y-84843866D02*
X82321064Y-84796247D01*
X82321064Y-84796247D02*
X82368683Y-84748628D01*
X77130588Y-79192438D02*
X77035350Y-79144819D01*
X77035350Y-79144819D02*
X76892493Y-79144819D01*
X76892493Y-79144819D02*
X76749636Y-79192438D01*
X76749636Y-79192438D02*
X76654398Y-79287676D01*
X76654398Y-79287676D02*
X76606779Y-79382914D01*
X76606779Y-79382914D02*
X76559160Y-79573390D01*
X76559160Y-79573390D02*
X76559160Y-79716247D01*
X76559160Y-79716247D02*
X76606779Y-79906723D01*
X76606779Y-79906723D02*
X76654398Y-80001961D01*
X76654398Y-80001961D02*
X76749636Y-80097200D01*
X76749636Y-80097200D02*
X76892493Y-80144819D01*
X76892493Y-80144819D02*
X76987731Y-80144819D01*
X76987731Y-80144819D02*
X77130588Y-80097200D01*
X77130588Y-80097200D02*
X77178207Y-80049580D01*
X77178207Y-80049580D02*
X77178207Y-79716247D01*
X77178207Y-79716247D02*
X76987731Y-79716247D01*
X77606779Y-80144819D02*
X77606779Y-79144819D01*
X77606779Y-79144819D02*
X77987731Y-79144819D01*
X77987731Y-79144819D02*
X78082969Y-79192438D01*
X78082969Y-79192438D02*
X78130588Y-79240057D01*
X78130588Y-79240057D02*
X78178207Y-79335295D01*
X78178207Y-79335295D02*
X78178207Y-79478152D01*
X78178207Y-79478152D02*
X78130588Y-79573390D01*
X78130588Y-79573390D02*
X78082969Y-79621009D01*
X78082969Y-79621009D02*
X77987731Y-79668628D01*
X77987731Y-79668628D02*
X77606779Y-79668628D01*
X78606779Y-80144819D02*
X78606779Y-79144819D01*
X79273445Y-79144819D02*
X79463921Y-79144819D01*
X79463921Y-79144819D02*
X79559159Y-79192438D01*
X79559159Y-79192438D02*
X79654397Y-79287676D01*
X79654397Y-79287676D02*
X79702016Y-79478152D01*
X79702016Y-79478152D02*
X79702016Y-79811485D01*
X79702016Y-79811485D02*
X79654397Y-80001961D01*
X79654397Y-80001961D02*
X79559159Y-80097200D01*
X79559159Y-80097200D02*
X79463921Y-80144819D01*
X79463921Y-80144819D02*
X79273445Y-80144819D01*
X79273445Y-80144819D02*
X79178207Y-80097200D01*
X79178207Y-80097200D02*
X79082969Y-80001961D01*
X79082969Y-80001961D02*
X79035350Y-79811485D01*
X79035350Y-79811485D02*
X79035350Y-79478152D01*
X79035350Y-79478152D02*
X79082969Y-79287676D01*
X79082969Y-79287676D02*
X79178207Y-79192438D01*
X79178207Y-79192438D02*
X79273445Y-79144819D01*
X80321064Y-79144819D02*
X80416302Y-79144819D01*
X80416302Y-79144819D02*
X80511540Y-79192438D01*
X80511540Y-79192438D02*
X80559159Y-79240057D01*
X80559159Y-79240057D02*
X80606778Y-79335295D01*
X80606778Y-79335295D02*
X80654397Y-79525771D01*
X80654397Y-79525771D02*
X80654397Y-79763866D01*
X80654397Y-79763866D02*
X80606778Y-79954342D01*
X80606778Y-79954342D02*
X80559159Y-80049580D01*
X80559159Y-80049580D02*
X80511540Y-80097200D01*
X80511540Y-80097200D02*
X80416302Y-80144819D01*
X80416302Y-80144819D02*
X80321064Y-80144819D01*
X80321064Y-80144819D02*
X80225826Y-80097200D01*
X80225826Y-80097200D02*
X80178207Y-80049580D01*
X80178207Y-80049580D02*
X80130588Y-79954342D01*
X80130588Y-79954342D02*
X80082969Y-79763866D01*
X80082969Y-79763866D02*
X80082969Y-79525771D01*
X80082969Y-79525771D02*
X80130588Y-79335295D01*
X80130588Y-79335295D02*
X80178207Y-79240057D01*
X80178207Y-79240057D02*
X80225826Y-79192438D01*
X80225826Y-79192438D02*
X80321064Y-79144819D01*
X80940112Y-79763866D02*
X80987731Y-79716247D01*
X80987731Y-79716247D02*
X81082969Y-79668628D01*
X81082969Y-79668628D02*
X81273445Y-79763866D01*
X81273445Y-79763866D02*
X81368683Y-79716247D01*
X81368683Y-79716247D02*
X81416302Y-79668628D01*
X92062744Y-84272438D02*
X91967506Y-84224819D01*
X91967506Y-84224819D02*
X91824649Y-84224819D01*
X91824649Y-84224819D02*
X91681792Y-84272438D01*
X91681792Y-84272438D02*
X91586554Y-84367676D01*
X91586554Y-84367676D02*
X91538935Y-84462914D01*
X91538935Y-84462914D02*
X91491316Y-84653390D01*
X91491316Y-84653390D02*
X91491316Y-84796247D01*
X91491316Y-84796247D02*
X91538935Y-84986723D01*
X91538935Y-84986723D02*
X91586554Y-85081961D01*
X91586554Y-85081961D02*
X91681792Y-85177200D01*
X91681792Y-85177200D02*
X91824649Y-85224819D01*
X91824649Y-85224819D02*
X91919887Y-85224819D01*
X91919887Y-85224819D02*
X92062744Y-85177200D01*
X92062744Y-85177200D02*
X92110363Y-85129580D01*
X92110363Y-85129580D02*
X92110363Y-84796247D01*
X92110363Y-84796247D02*
X91919887Y-84796247D01*
X92538935Y-85224819D02*
X92538935Y-84224819D01*
X92538935Y-84224819D02*
X92919887Y-84224819D01*
X92919887Y-84224819D02*
X93015125Y-84272438D01*
X93015125Y-84272438D02*
X93062744Y-84320057D01*
X93062744Y-84320057D02*
X93110363Y-84415295D01*
X93110363Y-84415295D02*
X93110363Y-84558152D01*
X93110363Y-84558152D02*
X93062744Y-84653390D01*
X93062744Y-84653390D02*
X93015125Y-84701009D01*
X93015125Y-84701009D02*
X92919887Y-84748628D01*
X92919887Y-84748628D02*
X92538935Y-84748628D01*
X93538935Y-85224819D02*
X93538935Y-84224819D01*
X94205601Y-84224819D02*
X94396077Y-84224819D01*
X94396077Y-84224819D02*
X94491315Y-84272438D01*
X94491315Y-84272438D02*
X94586553Y-84367676D01*
X94586553Y-84367676D02*
X94634172Y-84558152D01*
X94634172Y-84558152D02*
X94634172Y-84891485D01*
X94634172Y-84891485D02*
X94586553Y-85081961D01*
X94586553Y-85081961D02*
X94491315Y-85177200D01*
X94491315Y-85177200D02*
X94396077Y-85224819D01*
X94396077Y-85224819D02*
X94205601Y-85224819D01*
X94205601Y-85224819D02*
X94110363Y-85177200D01*
X94110363Y-85177200D02*
X94015125Y-85081961D01*
X94015125Y-85081961D02*
X93967506Y-84891485D01*
X93967506Y-84891485D02*
X93967506Y-84558152D01*
X93967506Y-84558152D02*
X94015125Y-84367676D01*
X94015125Y-84367676D02*
X94110363Y-84272438D01*
X94110363Y-84272438D02*
X94205601Y-84224819D01*
X95205601Y-84653390D02*
X95110363Y-84605771D01*
X95110363Y-84605771D02*
X95062744Y-84558152D01*
X95062744Y-84558152D02*
X95015125Y-84462914D01*
X95015125Y-84462914D02*
X95015125Y-84415295D01*
X95015125Y-84415295D02*
X95062744Y-84320057D01*
X95062744Y-84320057D02*
X95110363Y-84272438D01*
X95110363Y-84272438D02*
X95205601Y-84224819D01*
X95205601Y-84224819D02*
X95396077Y-84224819D01*
X95396077Y-84224819D02*
X95491315Y-84272438D01*
X95491315Y-84272438D02*
X95538934Y-84320057D01*
X95538934Y-84320057D02*
X95586553Y-84415295D01*
X95586553Y-84415295D02*
X95586553Y-84462914D01*
X95586553Y-84462914D02*
X95538934Y-84558152D01*
X95538934Y-84558152D02*
X95491315Y-84605771D01*
X95491315Y-84605771D02*
X95396077Y-84653390D01*
X95396077Y-84653390D02*
X95205601Y-84653390D01*
X95205601Y-84653390D02*
X95110363Y-84701009D01*
X95110363Y-84701009D02*
X95062744Y-84748628D01*
X95062744Y-84748628D02*
X95015125Y-84843866D01*
X95015125Y-84843866D02*
X95015125Y-85034342D01*
X95015125Y-85034342D02*
X95062744Y-85129580D01*
X95062744Y-85129580D02*
X95110363Y-85177200D01*
X95110363Y-85177200D02*
X95205601Y-85224819D01*
X95205601Y-85224819D02*
X95396077Y-85224819D01*
X95396077Y-85224819D02*
X95491315Y-85177200D01*
X95491315Y-85177200D02*
X95538934Y-85129580D01*
X95538934Y-85129580D02*
X95586553Y-85034342D01*
X95586553Y-85034342D02*
X95586553Y-84843866D01*
X95586553Y-84843866D02*
X95538934Y-84748628D01*
X95538934Y-84748628D02*
X95491315Y-84701009D01*
X95491315Y-84701009D02*
X95396077Y-84653390D01*
X95872268Y-84843866D02*
X95919887Y-84796247D01*
X95919887Y-84796247D02*
X96015125Y-84748628D01*
X96015125Y-84748628D02*
X96205601Y-84843866D01*
X96205601Y-84843866D02*
X96300839Y-84796247D01*
X96300839Y-84796247D02*
X96348458Y-84748628D01*
X91110363Y-71572438D02*
X91015125Y-71524819D01*
X91015125Y-71524819D02*
X90872268Y-71524819D01*
X90872268Y-71524819D02*
X90729411Y-71572438D01*
X90729411Y-71572438D02*
X90634173Y-71667676D01*
X90634173Y-71667676D02*
X90586554Y-71762914D01*
X90586554Y-71762914D02*
X90538935Y-71953390D01*
X90538935Y-71953390D02*
X90538935Y-72096247D01*
X90538935Y-72096247D02*
X90586554Y-72286723D01*
X90586554Y-72286723D02*
X90634173Y-72381961D01*
X90634173Y-72381961D02*
X90729411Y-72477200D01*
X90729411Y-72477200D02*
X90872268Y-72524819D01*
X90872268Y-72524819D02*
X90967506Y-72524819D01*
X90967506Y-72524819D02*
X91110363Y-72477200D01*
X91110363Y-72477200D02*
X91157982Y-72429580D01*
X91157982Y-72429580D02*
X91157982Y-72096247D01*
X91157982Y-72096247D02*
X90967506Y-72096247D01*
X91586554Y-72524819D02*
X91586554Y-71524819D01*
X91586554Y-71524819D02*
X91967506Y-71524819D01*
X91967506Y-71524819D02*
X92062744Y-71572438D01*
X92062744Y-71572438D02*
X92110363Y-71620057D01*
X92110363Y-71620057D02*
X92157982Y-71715295D01*
X92157982Y-71715295D02*
X92157982Y-71858152D01*
X92157982Y-71858152D02*
X92110363Y-71953390D01*
X92110363Y-71953390D02*
X92062744Y-72001009D01*
X92062744Y-72001009D02*
X91967506Y-72048628D01*
X91967506Y-72048628D02*
X91586554Y-72048628D01*
X92586554Y-72524819D02*
X92586554Y-71524819D01*
X93253220Y-71524819D02*
X93443696Y-71524819D01*
X93443696Y-71524819D02*
X93538934Y-71572438D01*
X93538934Y-71572438D02*
X93634172Y-71667676D01*
X93634172Y-71667676D02*
X93681791Y-71858152D01*
X93681791Y-71858152D02*
X93681791Y-72191485D01*
X93681791Y-72191485D02*
X93634172Y-72381961D01*
X93634172Y-72381961D02*
X93538934Y-72477200D01*
X93538934Y-72477200D02*
X93443696Y-72524819D01*
X93443696Y-72524819D02*
X93253220Y-72524819D01*
X93253220Y-72524819D02*
X93157982Y-72477200D01*
X93157982Y-72477200D02*
X93062744Y-72381961D01*
X93062744Y-72381961D02*
X93015125Y-72191485D01*
X93015125Y-72191485D02*
X93015125Y-71858152D01*
X93015125Y-71858152D02*
X93062744Y-71667676D01*
X93062744Y-71667676D02*
X93157982Y-71572438D01*
X93157982Y-71572438D02*
X93253220Y-71524819D01*
X94062744Y-71620057D02*
X94110363Y-71572438D01*
X94110363Y-71572438D02*
X94205601Y-71524819D01*
X94205601Y-71524819D02*
X94443696Y-71524819D01*
X94443696Y-71524819D02*
X94538934Y-71572438D01*
X94538934Y-71572438D02*
X94586553Y-71620057D01*
X94586553Y-71620057D02*
X94634172Y-71715295D01*
X94634172Y-71715295D02*
X94634172Y-71810533D01*
X94634172Y-71810533D02*
X94586553Y-71953390D01*
X94586553Y-71953390D02*
X94015125Y-72524819D01*
X94015125Y-72524819D02*
X94634172Y-72524819D01*
X95491315Y-71858152D02*
X95491315Y-72524819D01*
X95253220Y-71477200D02*
X95015125Y-72191485D01*
X95015125Y-72191485D02*
X95634172Y-72191485D01*
X95872268Y-72143866D02*
X95919887Y-72096247D01*
X95919887Y-72096247D02*
X96015125Y-72048628D01*
X96015125Y-72048628D02*
X96205601Y-72143866D01*
X96205601Y-72143866D02*
X96300839Y-72096247D01*
X96300839Y-72096247D02*
X96348458Y-72048628D01*
X92062744Y-81732438D02*
X91967506Y-81684819D01*
X91967506Y-81684819D02*
X91824649Y-81684819D01*
X91824649Y-81684819D02*
X91681792Y-81732438D01*
X91681792Y-81732438D02*
X91586554Y-81827676D01*
X91586554Y-81827676D02*
X91538935Y-81922914D01*
X91538935Y-81922914D02*
X91491316Y-82113390D01*
X91491316Y-82113390D02*
X91491316Y-82256247D01*
X91491316Y-82256247D02*
X91538935Y-82446723D01*
X91538935Y-82446723D02*
X91586554Y-82541961D01*
X91586554Y-82541961D02*
X91681792Y-82637200D01*
X91681792Y-82637200D02*
X91824649Y-82684819D01*
X91824649Y-82684819D02*
X91919887Y-82684819D01*
X91919887Y-82684819D02*
X92062744Y-82637200D01*
X92062744Y-82637200D02*
X92110363Y-82589580D01*
X92110363Y-82589580D02*
X92110363Y-82256247D01*
X92110363Y-82256247D02*
X91919887Y-82256247D01*
X92538935Y-82684819D02*
X92538935Y-81684819D01*
X92538935Y-81684819D02*
X92919887Y-81684819D01*
X92919887Y-81684819D02*
X93015125Y-81732438D01*
X93015125Y-81732438D02*
X93062744Y-81780057D01*
X93062744Y-81780057D02*
X93110363Y-81875295D01*
X93110363Y-81875295D02*
X93110363Y-82018152D01*
X93110363Y-82018152D02*
X93062744Y-82113390D01*
X93062744Y-82113390D02*
X93015125Y-82161009D01*
X93015125Y-82161009D02*
X92919887Y-82208628D01*
X92919887Y-82208628D02*
X92538935Y-82208628D01*
X93538935Y-82684819D02*
X93538935Y-81684819D01*
X94205601Y-81684819D02*
X94396077Y-81684819D01*
X94396077Y-81684819D02*
X94491315Y-81732438D01*
X94491315Y-81732438D02*
X94586553Y-81827676D01*
X94586553Y-81827676D02*
X94634172Y-82018152D01*
X94634172Y-82018152D02*
X94634172Y-82351485D01*
X94634172Y-82351485D02*
X94586553Y-82541961D01*
X94586553Y-82541961D02*
X94491315Y-82637200D01*
X94491315Y-82637200D02*
X94396077Y-82684819D01*
X94396077Y-82684819D02*
X94205601Y-82684819D01*
X94205601Y-82684819D02*
X94110363Y-82637200D01*
X94110363Y-82637200D02*
X94015125Y-82541961D01*
X94015125Y-82541961D02*
X93967506Y-82351485D01*
X93967506Y-82351485D02*
X93967506Y-82018152D01*
X93967506Y-82018152D02*
X94015125Y-81827676D01*
X94015125Y-81827676D02*
X94110363Y-81732438D01*
X94110363Y-81732438D02*
X94205601Y-81684819D01*
X95110363Y-82684819D02*
X95300839Y-82684819D01*
X95300839Y-82684819D02*
X95396077Y-82637200D01*
X95396077Y-82637200D02*
X95443696Y-82589580D01*
X95443696Y-82589580D02*
X95538934Y-82446723D01*
X95538934Y-82446723D02*
X95586553Y-82256247D01*
X95586553Y-82256247D02*
X95586553Y-81875295D01*
X95586553Y-81875295D02*
X95538934Y-81780057D01*
X95538934Y-81780057D02*
X95491315Y-81732438D01*
X95491315Y-81732438D02*
X95396077Y-81684819D01*
X95396077Y-81684819D02*
X95205601Y-81684819D01*
X95205601Y-81684819D02*
X95110363Y-81732438D01*
X95110363Y-81732438D02*
X95062744Y-81780057D01*
X95062744Y-81780057D02*
X95015125Y-81875295D01*
X95015125Y-81875295D02*
X95015125Y-82113390D01*
X95015125Y-82113390D02*
X95062744Y-82208628D01*
X95062744Y-82208628D02*
X95110363Y-82256247D01*
X95110363Y-82256247D02*
X95205601Y-82303866D01*
X95205601Y-82303866D02*
X95396077Y-82303866D01*
X95396077Y-82303866D02*
X95491315Y-82256247D01*
X95491315Y-82256247D02*
X95538934Y-82208628D01*
X95538934Y-82208628D02*
X95586553Y-82113390D01*
X95872268Y-82303866D02*
X95919887Y-82256247D01*
X95919887Y-82256247D02*
X96015125Y-82208628D01*
X96015125Y-82208628D02*
X96205601Y-82303866D01*
X96205601Y-82303866D02*
X96300839Y-82256247D01*
X96300839Y-82256247D02*
X96348458Y-82208628D01*
X94205601Y-63952438D02*
X94110363Y-63904819D01*
X94110363Y-63904819D02*
X93967506Y-63904819D01*
X93967506Y-63904819D02*
X93824649Y-63952438D01*
X93824649Y-63952438D02*
X93729411Y-64047676D01*
X93729411Y-64047676D02*
X93681792Y-64142914D01*
X93681792Y-64142914D02*
X93634173Y-64333390D01*
X93634173Y-64333390D02*
X93634173Y-64476247D01*
X93634173Y-64476247D02*
X93681792Y-64666723D01*
X93681792Y-64666723D02*
X93729411Y-64761961D01*
X93729411Y-64761961D02*
X93824649Y-64857200D01*
X93824649Y-64857200D02*
X93967506Y-64904819D01*
X93967506Y-64904819D02*
X94062744Y-64904819D01*
X94062744Y-64904819D02*
X94205601Y-64857200D01*
X94205601Y-64857200D02*
X94253220Y-64809580D01*
X94253220Y-64809580D02*
X94253220Y-64476247D01*
X94253220Y-64476247D02*
X94062744Y-64476247D01*
X94681792Y-64904819D02*
X94681792Y-63904819D01*
X94681792Y-63904819D02*
X95253220Y-64904819D01*
X95253220Y-64904819D02*
X95253220Y-63904819D01*
X95729411Y-64904819D02*
X95729411Y-63904819D01*
X95729411Y-63904819D02*
X95967506Y-63904819D01*
X95967506Y-63904819D02*
X96110363Y-63952438D01*
X96110363Y-63952438D02*
X96205601Y-64047676D01*
X96205601Y-64047676D02*
X96253220Y-64142914D01*
X96253220Y-64142914D02*
X96300839Y-64333390D01*
X96300839Y-64333390D02*
X96300839Y-64476247D01*
X96300839Y-64476247D02*
X96253220Y-64666723D01*
X96253220Y-64666723D02*
X96205601Y-64761961D01*
X96205601Y-64761961D02*
X96110363Y-64857200D01*
X96110363Y-64857200D02*
X95967506Y-64904819D01*
X95967506Y-64904819D02*
X95729411Y-64904819D01*
X91110363Y-76652438D02*
X91015125Y-76604819D01*
X91015125Y-76604819D02*
X90872268Y-76604819D01*
X90872268Y-76604819D02*
X90729411Y-76652438D01*
X90729411Y-76652438D02*
X90634173Y-76747676D01*
X90634173Y-76747676D02*
X90586554Y-76842914D01*
X90586554Y-76842914D02*
X90538935Y-77033390D01*
X90538935Y-77033390D02*
X90538935Y-77176247D01*
X90538935Y-77176247D02*
X90586554Y-77366723D01*
X90586554Y-77366723D02*
X90634173Y-77461961D01*
X90634173Y-77461961D02*
X90729411Y-77557200D01*
X90729411Y-77557200D02*
X90872268Y-77604819D01*
X90872268Y-77604819D02*
X90967506Y-77604819D01*
X90967506Y-77604819D02*
X91110363Y-77557200D01*
X91110363Y-77557200D02*
X91157982Y-77509580D01*
X91157982Y-77509580D02*
X91157982Y-77176247D01*
X91157982Y-77176247D02*
X90967506Y-77176247D01*
X91586554Y-77604819D02*
X91586554Y-76604819D01*
X91586554Y-76604819D02*
X91967506Y-76604819D01*
X91967506Y-76604819D02*
X92062744Y-76652438D01*
X92062744Y-76652438D02*
X92110363Y-76700057D01*
X92110363Y-76700057D02*
X92157982Y-76795295D01*
X92157982Y-76795295D02*
X92157982Y-76938152D01*
X92157982Y-76938152D02*
X92110363Y-77033390D01*
X92110363Y-77033390D02*
X92062744Y-77081009D01*
X92062744Y-77081009D02*
X91967506Y-77128628D01*
X91967506Y-77128628D02*
X91586554Y-77128628D01*
X92586554Y-77604819D02*
X92586554Y-76604819D01*
X93253220Y-76604819D02*
X93443696Y-76604819D01*
X93443696Y-76604819D02*
X93538934Y-76652438D01*
X93538934Y-76652438D02*
X93634172Y-76747676D01*
X93634172Y-76747676D02*
X93681791Y-76938152D01*
X93681791Y-76938152D02*
X93681791Y-77271485D01*
X93681791Y-77271485D02*
X93634172Y-77461961D01*
X93634172Y-77461961D02*
X93538934Y-77557200D01*
X93538934Y-77557200D02*
X93443696Y-77604819D01*
X93443696Y-77604819D02*
X93253220Y-77604819D01*
X93253220Y-77604819D02*
X93157982Y-77557200D01*
X93157982Y-77557200D02*
X93062744Y-77461961D01*
X93062744Y-77461961D02*
X93015125Y-77271485D01*
X93015125Y-77271485D02*
X93015125Y-76938152D01*
X93015125Y-76938152D02*
X93062744Y-76747676D01*
X93062744Y-76747676D02*
X93157982Y-76652438D01*
X93157982Y-76652438D02*
X93253220Y-76604819D01*
X94634172Y-77604819D02*
X94062744Y-77604819D01*
X94348458Y-77604819D02*
X94348458Y-76604819D01*
X94348458Y-76604819D02*
X94253220Y-76747676D01*
X94253220Y-76747676D02*
X94157982Y-76842914D01*
X94157982Y-76842914D02*
X94062744Y-76890533D01*
X95538934Y-76604819D02*
X95062744Y-76604819D01*
X95062744Y-76604819D02*
X95015125Y-77081009D01*
X95015125Y-77081009D02*
X95062744Y-77033390D01*
X95062744Y-77033390D02*
X95157982Y-76985771D01*
X95157982Y-76985771D02*
X95396077Y-76985771D01*
X95396077Y-76985771D02*
X95491315Y-77033390D01*
X95491315Y-77033390D02*
X95538934Y-77081009D01*
X95538934Y-77081009D02*
X95586553Y-77176247D01*
X95586553Y-77176247D02*
X95586553Y-77414342D01*
X95586553Y-77414342D02*
X95538934Y-77509580D01*
X95538934Y-77509580D02*
X95491315Y-77557200D01*
X95491315Y-77557200D02*
X95396077Y-77604819D01*
X95396077Y-77604819D02*
X95157982Y-77604819D01*
X95157982Y-77604819D02*
X95062744Y-77557200D01*
X95062744Y-77557200D02*
X95015125Y-77509580D01*
X95872268Y-77223866D02*
X95919887Y-77176247D01*
X95919887Y-77176247D02*
X96015125Y-77128628D01*
X96015125Y-77128628D02*
X96205601Y-77223866D01*
X96205601Y-77223866D02*
X96300839Y-77176247D01*
X96300839Y-77176247D02*
X96348458Y-77128628D01*
X91110363Y-74112438D02*
X91015125Y-74064819D01*
X91015125Y-74064819D02*
X90872268Y-74064819D01*
X90872268Y-74064819D02*
X90729411Y-74112438D01*
X90729411Y-74112438D02*
X90634173Y-74207676D01*
X90634173Y-74207676D02*
X90586554Y-74302914D01*
X90586554Y-74302914D02*
X90538935Y-74493390D01*
X90538935Y-74493390D02*
X90538935Y-74636247D01*
X90538935Y-74636247D02*
X90586554Y-74826723D01*
X90586554Y-74826723D02*
X90634173Y-74921961D01*
X90634173Y-74921961D02*
X90729411Y-75017200D01*
X90729411Y-75017200D02*
X90872268Y-75064819D01*
X90872268Y-75064819D02*
X90967506Y-75064819D01*
X90967506Y-75064819D02*
X91110363Y-75017200D01*
X91110363Y-75017200D02*
X91157982Y-74969580D01*
X91157982Y-74969580D02*
X91157982Y-74636247D01*
X91157982Y-74636247D02*
X90967506Y-74636247D01*
X91586554Y-75064819D02*
X91586554Y-74064819D01*
X91586554Y-74064819D02*
X91967506Y-74064819D01*
X91967506Y-74064819D02*
X92062744Y-74112438D01*
X92062744Y-74112438D02*
X92110363Y-74160057D01*
X92110363Y-74160057D02*
X92157982Y-74255295D01*
X92157982Y-74255295D02*
X92157982Y-74398152D01*
X92157982Y-74398152D02*
X92110363Y-74493390D01*
X92110363Y-74493390D02*
X92062744Y-74541009D01*
X92062744Y-74541009D02*
X91967506Y-74588628D01*
X91967506Y-74588628D02*
X91586554Y-74588628D01*
X92586554Y-75064819D02*
X92586554Y-74064819D01*
X93253220Y-74064819D02*
X93443696Y-74064819D01*
X93443696Y-74064819D02*
X93538934Y-74112438D01*
X93538934Y-74112438D02*
X93634172Y-74207676D01*
X93634172Y-74207676D02*
X93681791Y-74398152D01*
X93681791Y-74398152D02*
X93681791Y-74731485D01*
X93681791Y-74731485D02*
X93634172Y-74921961D01*
X93634172Y-74921961D02*
X93538934Y-75017200D01*
X93538934Y-75017200D02*
X93443696Y-75064819D01*
X93443696Y-75064819D02*
X93253220Y-75064819D01*
X93253220Y-75064819D02*
X93157982Y-75017200D01*
X93157982Y-75017200D02*
X93062744Y-74921961D01*
X93062744Y-74921961D02*
X93015125Y-74731485D01*
X93015125Y-74731485D02*
X93015125Y-74398152D01*
X93015125Y-74398152D02*
X93062744Y-74207676D01*
X93062744Y-74207676D02*
X93157982Y-74112438D01*
X93157982Y-74112438D02*
X93253220Y-74064819D01*
X94062744Y-74160057D02*
X94110363Y-74112438D01*
X94110363Y-74112438D02*
X94205601Y-74064819D01*
X94205601Y-74064819D02*
X94443696Y-74064819D01*
X94443696Y-74064819D02*
X94538934Y-74112438D01*
X94538934Y-74112438D02*
X94586553Y-74160057D01*
X94586553Y-74160057D02*
X94634172Y-74255295D01*
X94634172Y-74255295D02*
X94634172Y-74350533D01*
X94634172Y-74350533D02*
X94586553Y-74493390D01*
X94586553Y-74493390D02*
X94015125Y-75064819D01*
X94015125Y-75064819D02*
X94634172Y-75064819D01*
X94967506Y-74064819D02*
X95586553Y-74064819D01*
X95586553Y-74064819D02*
X95253220Y-74445771D01*
X95253220Y-74445771D02*
X95396077Y-74445771D01*
X95396077Y-74445771D02*
X95491315Y-74493390D01*
X95491315Y-74493390D02*
X95538934Y-74541009D01*
X95538934Y-74541009D02*
X95586553Y-74636247D01*
X95586553Y-74636247D02*
X95586553Y-74874342D01*
X95586553Y-74874342D02*
X95538934Y-74969580D01*
X95538934Y-74969580D02*
X95491315Y-75017200D01*
X95491315Y-75017200D02*
X95396077Y-75064819D01*
X95396077Y-75064819D02*
X95110363Y-75064819D01*
X95110363Y-75064819D02*
X95015125Y-75017200D01*
X95015125Y-75017200D02*
X94967506Y-74969580D01*
X95872268Y-74683866D02*
X95919887Y-74636247D01*
X95919887Y-74636247D02*
X96015125Y-74588628D01*
X96015125Y-74588628D02*
X96205601Y-74683866D01*
X96205601Y-74683866D02*
X96300839Y-74636247D01*
X96300839Y-74636247D02*
X96348458Y-74588628D01*
X77130588Y-89352438D02*
X77035350Y-89304819D01*
X77035350Y-89304819D02*
X76892493Y-89304819D01*
X76892493Y-89304819D02*
X76749636Y-89352438D01*
X76749636Y-89352438D02*
X76654398Y-89447676D01*
X76654398Y-89447676D02*
X76606779Y-89542914D01*
X76606779Y-89542914D02*
X76559160Y-89733390D01*
X76559160Y-89733390D02*
X76559160Y-89876247D01*
X76559160Y-89876247D02*
X76606779Y-90066723D01*
X76606779Y-90066723D02*
X76654398Y-90161961D01*
X76654398Y-90161961D02*
X76749636Y-90257200D01*
X76749636Y-90257200D02*
X76892493Y-90304819D01*
X76892493Y-90304819D02*
X76987731Y-90304819D01*
X76987731Y-90304819D02*
X77130588Y-90257200D01*
X77130588Y-90257200D02*
X77178207Y-90209580D01*
X77178207Y-90209580D02*
X77178207Y-89876247D01*
X77178207Y-89876247D02*
X76987731Y-89876247D01*
X77606779Y-90304819D02*
X77606779Y-89304819D01*
X77606779Y-89304819D02*
X77987731Y-89304819D01*
X77987731Y-89304819D02*
X78082969Y-89352438D01*
X78082969Y-89352438D02*
X78130588Y-89400057D01*
X78130588Y-89400057D02*
X78178207Y-89495295D01*
X78178207Y-89495295D02*
X78178207Y-89638152D01*
X78178207Y-89638152D02*
X78130588Y-89733390D01*
X78130588Y-89733390D02*
X78082969Y-89781009D01*
X78082969Y-89781009D02*
X77987731Y-89828628D01*
X77987731Y-89828628D02*
X77606779Y-89828628D01*
X78606779Y-90304819D02*
X78606779Y-89304819D01*
X79273445Y-89304819D02*
X79463921Y-89304819D01*
X79463921Y-89304819D02*
X79559159Y-89352438D01*
X79559159Y-89352438D02*
X79654397Y-89447676D01*
X79654397Y-89447676D02*
X79702016Y-89638152D01*
X79702016Y-89638152D02*
X79702016Y-89971485D01*
X79702016Y-89971485D02*
X79654397Y-90161961D01*
X79654397Y-90161961D02*
X79559159Y-90257200D01*
X79559159Y-90257200D02*
X79463921Y-90304819D01*
X79463921Y-90304819D02*
X79273445Y-90304819D01*
X79273445Y-90304819D02*
X79178207Y-90257200D01*
X79178207Y-90257200D02*
X79082969Y-90161961D01*
X79082969Y-90161961D02*
X79035350Y-89971485D01*
X79035350Y-89971485D02*
X79035350Y-89638152D01*
X79035350Y-89638152D02*
X79082969Y-89447676D01*
X79082969Y-89447676D02*
X79178207Y-89352438D01*
X79178207Y-89352438D02*
X79273445Y-89304819D01*
X80035350Y-89304819D02*
X80702016Y-89304819D01*
X80702016Y-89304819D02*
X80273445Y-90304819D01*
X80940112Y-89923866D02*
X80987731Y-89876247D01*
X80987731Y-89876247D02*
X81082969Y-89828628D01*
X81082969Y-89828628D02*
X81273445Y-89923866D01*
X81273445Y-89923866D02*
X81368683Y-89876247D01*
X81368683Y-89876247D02*
X81416302Y-89828628D01*
X77130588Y-74112438D02*
X77035350Y-74064819D01*
X77035350Y-74064819D02*
X76892493Y-74064819D01*
X76892493Y-74064819D02*
X76749636Y-74112438D01*
X76749636Y-74112438D02*
X76654398Y-74207676D01*
X76654398Y-74207676D02*
X76606779Y-74302914D01*
X76606779Y-74302914D02*
X76559160Y-74493390D01*
X76559160Y-74493390D02*
X76559160Y-74636247D01*
X76559160Y-74636247D02*
X76606779Y-74826723D01*
X76606779Y-74826723D02*
X76654398Y-74921961D01*
X76654398Y-74921961D02*
X76749636Y-75017200D01*
X76749636Y-75017200D02*
X76892493Y-75064819D01*
X76892493Y-75064819D02*
X76987731Y-75064819D01*
X76987731Y-75064819D02*
X77130588Y-75017200D01*
X77130588Y-75017200D02*
X77178207Y-74969580D01*
X77178207Y-74969580D02*
X77178207Y-74636247D01*
X77178207Y-74636247D02*
X76987731Y-74636247D01*
X77606779Y-75064819D02*
X77606779Y-74064819D01*
X77606779Y-74064819D02*
X77987731Y-74064819D01*
X77987731Y-74064819D02*
X78082969Y-74112438D01*
X78082969Y-74112438D02*
X78130588Y-74160057D01*
X78130588Y-74160057D02*
X78178207Y-74255295D01*
X78178207Y-74255295D02*
X78178207Y-74398152D01*
X78178207Y-74398152D02*
X78130588Y-74493390D01*
X78130588Y-74493390D02*
X78082969Y-74541009D01*
X78082969Y-74541009D02*
X77987731Y-74588628D01*
X77987731Y-74588628D02*
X77606779Y-74588628D01*
X78606779Y-75064819D02*
X78606779Y-74064819D01*
X79273445Y-74064819D02*
X79463921Y-74064819D01*
X79463921Y-74064819D02*
X79559159Y-74112438D01*
X79559159Y-74112438D02*
X79654397Y-74207676D01*
X79654397Y-74207676D02*
X79702016Y-74398152D01*
X79702016Y-74398152D02*
X79702016Y-74731485D01*
X79702016Y-74731485D02*
X79654397Y-74921961D01*
X79654397Y-74921961D02*
X79559159Y-75017200D01*
X79559159Y-75017200D02*
X79463921Y-75064819D01*
X79463921Y-75064819D02*
X79273445Y-75064819D01*
X79273445Y-75064819D02*
X79178207Y-75017200D01*
X79178207Y-75017200D02*
X79082969Y-74921961D01*
X79082969Y-74921961D02*
X79035350Y-74731485D01*
X79035350Y-74731485D02*
X79035350Y-74398152D01*
X79035350Y-74398152D02*
X79082969Y-74207676D01*
X79082969Y-74207676D02*
X79178207Y-74112438D01*
X79178207Y-74112438D02*
X79273445Y-74064819D01*
X80559159Y-74398152D02*
X80559159Y-75064819D01*
X80321064Y-74017200D02*
X80082969Y-74731485D01*
X80082969Y-74731485D02*
X80702016Y-74731485D01*
X80940112Y-74683866D02*
X80987731Y-74636247D01*
X80987731Y-74636247D02*
X81082969Y-74588628D01*
X81082969Y-74588628D02*
X81273445Y-74683866D01*
X81273445Y-74683866D02*
X81368683Y-74636247D01*
X81368683Y-74636247D02*
X81416302Y-74588628D01*
X77130588Y-81732438D02*
X77035350Y-81684819D01*
X77035350Y-81684819D02*
X76892493Y-81684819D01*
X76892493Y-81684819D02*
X76749636Y-81732438D01*
X76749636Y-81732438D02*
X76654398Y-81827676D01*
X76654398Y-81827676D02*
X76606779Y-81922914D01*
X76606779Y-81922914D02*
X76559160Y-82113390D01*
X76559160Y-82113390D02*
X76559160Y-82256247D01*
X76559160Y-82256247D02*
X76606779Y-82446723D01*
X76606779Y-82446723D02*
X76654398Y-82541961D01*
X76654398Y-82541961D02*
X76749636Y-82637200D01*
X76749636Y-82637200D02*
X76892493Y-82684819D01*
X76892493Y-82684819D02*
X76987731Y-82684819D01*
X76987731Y-82684819D02*
X77130588Y-82637200D01*
X77130588Y-82637200D02*
X77178207Y-82589580D01*
X77178207Y-82589580D02*
X77178207Y-82256247D01*
X77178207Y-82256247D02*
X76987731Y-82256247D01*
X77606779Y-82684819D02*
X77606779Y-81684819D01*
X77606779Y-81684819D02*
X77987731Y-81684819D01*
X77987731Y-81684819D02*
X78082969Y-81732438D01*
X78082969Y-81732438D02*
X78130588Y-81780057D01*
X78130588Y-81780057D02*
X78178207Y-81875295D01*
X78178207Y-81875295D02*
X78178207Y-82018152D01*
X78178207Y-82018152D02*
X78130588Y-82113390D01*
X78130588Y-82113390D02*
X78082969Y-82161009D01*
X78082969Y-82161009D02*
X77987731Y-82208628D01*
X77987731Y-82208628D02*
X77606779Y-82208628D01*
X78606779Y-82684819D02*
X78606779Y-81684819D01*
X79273445Y-81684819D02*
X79463921Y-81684819D01*
X79463921Y-81684819D02*
X79559159Y-81732438D01*
X79559159Y-81732438D02*
X79654397Y-81827676D01*
X79654397Y-81827676D02*
X79702016Y-82018152D01*
X79702016Y-82018152D02*
X79702016Y-82351485D01*
X79702016Y-82351485D02*
X79654397Y-82541961D01*
X79654397Y-82541961D02*
X79559159Y-82637200D01*
X79559159Y-82637200D02*
X79463921Y-82684819D01*
X79463921Y-82684819D02*
X79273445Y-82684819D01*
X79273445Y-82684819D02*
X79178207Y-82637200D01*
X79178207Y-82637200D02*
X79082969Y-82541961D01*
X79082969Y-82541961D02*
X79035350Y-82351485D01*
X79035350Y-82351485D02*
X79035350Y-82018152D01*
X79035350Y-82018152D02*
X79082969Y-81827676D01*
X79082969Y-81827676D02*
X79178207Y-81732438D01*
X79178207Y-81732438D02*
X79273445Y-81684819D01*
X80654397Y-82684819D02*
X80082969Y-82684819D01*
X80368683Y-82684819D02*
X80368683Y-81684819D01*
X80368683Y-81684819D02*
X80273445Y-81827676D01*
X80273445Y-81827676D02*
X80178207Y-81922914D01*
X80178207Y-81922914D02*
X80082969Y-81970533D01*
X80940112Y-82303866D02*
X80987731Y-82256247D01*
X80987731Y-82256247D02*
X81082969Y-82208628D01*
X81082969Y-82208628D02*
X81273445Y-82303866D01*
X81273445Y-82303866D02*
X81368683Y-82256247D01*
X81368683Y-82256247D02*
X81416302Y-82208628D01*
X91110363Y-89352438D02*
X91015125Y-89304819D01*
X91015125Y-89304819D02*
X90872268Y-89304819D01*
X90872268Y-89304819D02*
X90729411Y-89352438D01*
X90729411Y-89352438D02*
X90634173Y-89447676D01*
X90634173Y-89447676D02*
X90586554Y-89542914D01*
X90586554Y-89542914D02*
X90538935Y-89733390D01*
X90538935Y-89733390D02*
X90538935Y-89876247D01*
X90538935Y-89876247D02*
X90586554Y-90066723D01*
X90586554Y-90066723D02*
X90634173Y-90161961D01*
X90634173Y-90161961D02*
X90729411Y-90257200D01*
X90729411Y-90257200D02*
X90872268Y-90304819D01*
X90872268Y-90304819D02*
X90967506Y-90304819D01*
X90967506Y-90304819D02*
X91110363Y-90257200D01*
X91110363Y-90257200D02*
X91157982Y-90209580D01*
X91157982Y-90209580D02*
X91157982Y-89876247D01*
X91157982Y-89876247D02*
X90967506Y-89876247D01*
X91586554Y-90304819D02*
X91586554Y-89304819D01*
X91586554Y-89304819D02*
X91967506Y-89304819D01*
X91967506Y-89304819D02*
X92062744Y-89352438D01*
X92062744Y-89352438D02*
X92110363Y-89400057D01*
X92110363Y-89400057D02*
X92157982Y-89495295D01*
X92157982Y-89495295D02*
X92157982Y-89638152D01*
X92157982Y-89638152D02*
X92110363Y-89733390D01*
X92110363Y-89733390D02*
X92062744Y-89781009D01*
X92062744Y-89781009D02*
X91967506Y-89828628D01*
X91967506Y-89828628D02*
X91586554Y-89828628D01*
X92586554Y-90304819D02*
X92586554Y-89304819D01*
X93253220Y-89304819D02*
X93443696Y-89304819D01*
X93443696Y-89304819D02*
X93538934Y-89352438D01*
X93538934Y-89352438D02*
X93634172Y-89447676D01*
X93634172Y-89447676D02*
X93681791Y-89638152D01*
X93681791Y-89638152D02*
X93681791Y-89971485D01*
X93681791Y-89971485D02*
X93634172Y-90161961D01*
X93634172Y-90161961D02*
X93538934Y-90257200D01*
X93538934Y-90257200D02*
X93443696Y-90304819D01*
X93443696Y-90304819D02*
X93253220Y-90304819D01*
X93253220Y-90304819D02*
X93157982Y-90257200D01*
X93157982Y-90257200D02*
X93062744Y-90161961D01*
X93062744Y-90161961D02*
X93015125Y-89971485D01*
X93015125Y-89971485D02*
X93015125Y-89638152D01*
X93015125Y-89638152D02*
X93062744Y-89447676D01*
X93062744Y-89447676D02*
X93157982Y-89352438D01*
X93157982Y-89352438D02*
X93253220Y-89304819D01*
X94062744Y-89400057D02*
X94110363Y-89352438D01*
X94110363Y-89352438D02*
X94205601Y-89304819D01*
X94205601Y-89304819D02*
X94443696Y-89304819D01*
X94443696Y-89304819D02*
X94538934Y-89352438D01*
X94538934Y-89352438D02*
X94586553Y-89400057D01*
X94586553Y-89400057D02*
X94634172Y-89495295D01*
X94634172Y-89495295D02*
X94634172Y-89590533D01*
X94634172Y-89590533D02*
X94586553Y-89733390D01*
X94586553Y-89733390D02*
X94015125Y-90304819D01*
X94015125Y-90304819D02*
X94634172Y-90304819D01*
X95205601Y-89733390D02*
X95110363Y-89685771D01*
X95110363Y-89685771D02*
X95062744Y-89638152D01*
X95062744Y-89638152D02*
X95015125Y-89542914D01*
X95015125Y-89542914D02*
X95015125Y-89495295D01*
X95015125Y-89495295D02*
X95062744Y-89400057D01*
X95062744Y-89400057D02*
X95110363Y-89352438D01*
X95110363Y-89352438D02*
X95205601Y-89304819D01*
X95205601Y-89304819D02*
X95396077Y-89304819D01*
X95396077Y-89304819D02*
X95491315Y-89352438D01*
X95491315Y-89352438D02*
X95538934Y-89400057D01*
X95538934Y-89400057D02*
X95586553Y-89495295D01*
X95586553Y-89495295D02*
X95586553Y-89542914D01*
X95586553Y-89542914D02*
X95538934Y-89638152D01*
X95538934Y-89638152D02*
X95491315Y-89685771D01*
X95491315Y-89685771D02*
X95396077Y-89733390D01*
X95396077Y-89733390D02*
X95205601Y-89733390D01*
X95205601Y-89733390D02*
X95110363Y-89781009D01*
X95110363Y-89781009D02*
X95062744Y-89828628D01*
X95062744Y-89828628D02*
X95015125Y-89923866D01*
X95015125Y-89923866D02*
X95015125Y-90114342D01*
X95015125Y-90114342D02*
X95062744Y-90209580D01*
X95062744Y-90209580D02*
X95110363Y-90257200D01*
X95110363Y-90257200D02*
X95205601Y-90304819D01*
X95205601Y-90304819D02*
X95396077Y-90304819D01*
X95396077Y-90304819D02*
X95491315Y-90257200D01*
X95491315Y-90257200D02*
X95538934Y-90209580D01*
X95538934Y-90209580D02*
X95586553Y-90114342D01*
X95586553Y-90114342D02*
X95586553Y-89923866D01*
X95586553Y-89923866D02*
X95538934Y-89828628D01*
X95538934Y-89828628D02*
X95491315Y-89781009D01*
X95491315Y-89781009D02*
X95396077Y-89733390D01*
X95872268Y-89923866D02*
X95919887Y-89876247D01*
X95919887Y-89876247D02*
X96015125Y-89828628D01*
X96015125Y-89828628D02*
X96205601Y-89923866D01*
X96205601Y-89923866D02*
X96300839Y-89876247D01*
X96300839Y-89876247D02*
X96348458Y-89828628D01*
X77082969Y-96924819D02*
X76606779Y-96924819D01*
X76606779Y-96924819D02*
X76559160Y-97401009D01*
X76559160Y-97401009D02*
X76606779Y-97353390D01*
X76606779Y-97353390D02*
X76702017Y-97305771D01*
X76702017Y-97305771D02*
X76940112Y-97305771D01*
X76940112Y-97305771D02*
X77035350Y-97353390D01*
X77035350Y-97353390D02*
X77082969Y-97401009D01*
X77082969Y-97401009D02*
X77130588Y-97496247D01*
X77130588Y-97496247D02*
X77130588Y-97734342D01*
X77130588Y-97734342D02*
X77082969Y-97829580D01*
X77082969Y-97829580D02*
X77035350Y-97877200D01*
X77035350Y-97877200D02*
X76940112Y-97924819D01*
X76940112Y-97924819D02*
X76702017Y-97924819D01*
X76702017Y-97924819D02*
X76606779Y-97877200D01*
X76606779Y-97877200D02*
X76559160Y-97829580D01*
X77416303Y-96924819D02*
X77749636Y-97924819D01*
X77749636Y-97924819D02*
X78082969Y-96924819D01*
X94205601Y-99512438D02*
X94110363Y-99464819D01*
X94110363Y-99464819D02*
X93967506Y-99464819D01*
X93967506Y-99464819D02*
X93824649Y-99512438D01*
X93824649Y-99512438D02*
X93729411Y-99607676D01*
X93729411Y-99607676D02*
X93681792Y-99702914D01*
X93681792Y-99702914D02*
X93634173Y-99893390D01*
X93634173Y-99893390D02*
X93634173Y-100036247D01*
X93634173Y-100036247D02*
X93681792Y-100226723D01*
X93681792Y-100226723D02*
X93729411Y-100321961D01*
X93729411Y-100321961D02*
X93824649Y-100417200D01*
X93824649Y-100417200D02*
X93967506Y-100464819D01*
X93967506Y-100464819D02*
X94062744Y-100464819D01*
X94062744Y-100464819D02*
X94205601Y-100417200D01*
X94205601Y-100417200D02*
X94253220Y-100369580D01*
X94253220Y-100369580D02*
X94253220Y-100036247D01*
X94253220Y-100036247D02*
X94062744Y-100036247D01*
X94681792Y-100464819D02*
X94681792Y-99464819D01*
X94681792Y-99464819D02*
X95253220Y-100464819D01*
X95253220Y-100464819D02*
X95253220Y-99464819D01*
X95729411Y-100464819D02*
X95729411Y-99464819D01*
X95729411Y-99464819D02*
X95967506Y-99464819D01*
X95967506Y-99464819D02*
X96110363Y-99512438D01*
X96110363Y-99512438D02*
X96205601Y-99607676D01*
X96205601Y-99607676D02*
X96253220Y-99702914D01*
X96253220Y-99702914D02*
X96300839Y-99893390D01*
X96300839Y-99893390D02*
X96300839Y-100036247D01*
X96300839Y-100036247D02*
X96253220Y-100226723D01*
X96253220Y-100226723D02*
X96205601Y-100321961D01*
X96205601Y-100321961D02*
X96110363Y-100417200D01*
X96110363Y-100417200D02*
X95967506Y-100464819D01*
X95967506Y-100464819D02*
X95729411Y-100464819D01*
X76501921Y-66921009D02*
X76835254Y-66921009D01*
X76978111Y-67444819D02*
X76501921Y-67444819D01*
X76501921Y-67444819D02*
X76501921Y-66444819D01*
X76501921Y-66444819D02*
X76978111Y-66444819D01*
X77406683Y-67444819D02*
X77406683Y-66444819D01*
X77406683Y-66444819D02*
X77978111Y-67444819D01*
X77978111Y-67444819D02*
X77978111Y-66444819D01*
X79168587Y-66397200D02*
X78311445Y-67682914D01*
X80073349Y-67444819D02*
X79740016Y-66968628D01*
X79501921Y-67444819D02*
X79501921Y-66444819D01*
X79501921Y-66444819D02*
X79882873Y-66444819D01*
X79882873Y-66444819D02*
X79978111Y-66492438D01*
X79978111Y-66492438D02*
X80025730Y-66540057D01*
X80025730Y-66540057D02*
X80073349Y-66635295D01*
X80073349Y-66635295D02*
X80073349Y-66778152D01*
X80073349Y-66778152D02*
X80025730Y-66873390D01*
X80025730Y-66873390D02*
X79978111Y-66921009D01*
X79978111Y-66921009D02*
X79882873Y-66968628D01*
X79882873Y-66968628D02*
X79501921Y-66968628D01*
X80501921Y-66921009D02*
X80835254Y-66921009D01*
X80978111Y-67444819D02*
X80501921Y-67444819D01*
X80501921Y-67444819D02*
X80501921Y-66444819D01*
X80501921Y-66444819D02*
X80978111Y-66444819D01*
X81359064Y-67397200D02*
X81501921Y-67444819D01*
X81501921Y-67444819D02*
X81740016Y-67444819D01*
X81740016Y-67444819D02*
X81835254Y-67397200D01*
X81835254Y-67397200D02*
X81882873Y-67349580D01*
X81882873Y-67349580D02*
X81930492Y-67254342D01*
X81930492Y-67254342D02*
X81930492Y-67159104D01*
X81930492Y-67159104D02*
X81882873Y-67063866D01*
X81882873Y-67063866D02*
X81835254Y-67016247D01*
X81835254Y-67016247D02*
X81740016Y-66968628D01*
X81740016Y-66968628D02*
X81549540Y-66921009D01*
X81549540Y-66921009D02*
X81454302Y-66873390D01*
X81454302Y-66873390D02*
X81406683Y-66825771D01*
X81406683Y-66825771D02*
X81359064Y-66730533D01*
X81359064Y-66730533D02*
X81359064Y-66635295D01*
X81359064Y-66635295D02*
X81406683Y-66540057D01*
X81406683Y-66540057D02*
X81454302Y-66492438D01*
X81454302Y-66492438D02*
X81549540Y-66444819D01*
X81549540Y-66444819D02*
X81787635Y-66444819D01*
X81787635Y-66444819D02*
X81930492Y-66492438D01*
X82359064Y-66921009D02*
X82692397Y-66921009D01*
X82835254Y-67444819D02*
X82359064Y-67444819D01*
X82359064Y-67444819D02*
X82359064Y-66444819D01*
X82359064Y-66444819D02*
X82835254Y-66444819D01*
X83120969Y-66444819D02*
X83692397Y-66444819D01*
X83406683Y-67444819D02*
X83406683Y-66444819D01*
X94681792Y-87764819D02*
X94681792Y-86764819D01*
X94681792Y-86764819D02*
X95253220Y-87764819D01*
X95253220Y-87764819D02*
X95253220Y-86764819D01*
X96300839Y-87669580D02*
X96253220Y-87717200D01*
X96253220Y-87717200D02*
X96110363Y-87764819D01*
X96110363Y-87764819D02*
X96015125Y-87764819D01*
X96015125Y-87764819D02*
X95872268Y-87717200D01*
X95872268Y-87717200D02*
X95777030Y-87621961D01*
X95777030Y-87621961D02*
X95729411Y-87526723D01*
X95729411Y-87526723D02*
X95681792Y-87336247D01*
X95681792Y-87336247D02*
X95681792Y-87193390D01*
X95681792Y-87193390D02*
X95729411Y-87002914D01*
X95729411Y-87002914D02*
X95777030Y-86907676D01*
X95777030Y-86907676D02*
X95872268Y-86812438D01*
X95872268Y-86812438D02*
X96015125Y-86764819D01*
X96015125Y-86764819D02*
X96110363Y-86764819D01*
X96110363Y-86764819D02*
X96253220Y-86812438D01*
X96253220Y-86812438D02*
X96300839Y-86860057D01*
X91110363Y-79192438D02*
X91015125Y-79144819D01*
X91015125Y-79144819D02*
X90872268Y-79144819D01*
X90872268Y-79144819D02*
X90729411Y-79192438D01*
X90729411Y-79192438D02*
X90634173Y-79287676D01*
X90634173Y-79287676D02*
X90586554Y-79382914D01*
X90586554Y-79382914D02*
X90538935Y-79573390D01*
X90538935Y-79573390D02*
X90538935Y-79716247D01*
X90538935Y-79716247D02*
X90586554Y-79906723D01*
X90586554Y-79906723D02*
X90634173Y-80001961D01*
X90634173Y-80001961D02*
X90729411Y-80097200D01*
X90729411Y-80097200D02*
X90872268Y-80144819D01*
X90872268Y-80144819D02*
X90967506Y-80144819D01*
X90967506Y-80144819D02*
X91110363Y-80097200D01*
X91110363Y-80097200D02*
X91157982Y-80049580D01*
X91157982Y-80049580D02*
X91157982Y-79716247D01*
X91157982Y-79716247D02*
X90967506Y-79716247D01*
X91586554Y-80144819D02*
X91586554Y-79144819D01*
X91586554Y-79144819D02*
X91967506Y-79144819D01*
X91967506Y-79144819D02*
X92062744Y-79192438D01*
X92062744Y-79192438D02*
X92110363Y-79240057D01*
X92110363Y-79240057D02*
X92157982Y-79335295D01*
X92157982Y-79335295D02*
X92157982Y-79478152D01*
X92157982Y-79478152D02*
X92110363Y-79573390D01*
X92110363Y-79573390D02*
X92062744Y-79621009D01*
X92062744Y-79621009D02*
X91967506Y-79668628D01*
X91967506Y-79668628D02*
X91586554Y-79668628D01*
X92586554Y-80144819D02*
X92586554Y-79144819D01*
X93253220Y-79144819D02*
X93443696Y-79144819D01*
X93443696Y-79144819D02*
X93538934Y-79192438D01*
X93538934Y-79192438D02*
X93634172Y-79287676D01*
X93634172Y-79287676D02*
X93681791Y-79478152D01*
X93681791Y-79478152D02*
X93681791Y-79811485D01*
X93681791Y-79811485D02*
X93634172Y-80001961D01*
X93634172Y-80001961D02*
X93538934Y-80097200D01*
X93538934Y-80097200D02*
X93443696Y-80144819D01*
X93443696Y-80144819D02*
X93253220Y-80144819D01*
X93253220Y-80144819D02*
X93157982Y-80097200D01*
X93157982Y-80097200D02*
X93062744Y-80001961D01*
X93062744Y-80001961D02*
X93015125Y-79811485D01*
X93015125Y-79811485D02*
X93015125Y-79478152D01*
X93015125Y-79478152D02*
X93062744Y-79287676D01*
X93062744Y-79287676D02*
X93157982Y-79192438D01*
X93157982Y-79192438D02*
X93253220Y-79144819D01*
X94634172Y-80144819D02*
X94062744Y-80144819D01*
X94348458Y-80144819D02*
X94348458Y-79144819D01*
X94348458Y-79144819D02*
X94253220Y-79287676D01*
X94253220Y-79287676D02*
X94157982Y-79382914D01*
X94157982Y-79382914D02*
X94062744Y-79430533D01*
X95253220Y-79144819D02*
X95348458Y-79144819D01*
X95348458Y-79144819D02*
X95443696Y-79192438D01*
X95443696Y-79192438D02*
X95491315Y-79240057D01*
X95491315Y-79240057D02*
X95538934Y-79335295D01*
X95538934Y-79335295D02*
X95586553Y-79525771D01*
X95586553Y-79525771D02*
X95586553Y-79763866D01*
X95586553Y-79763866D02*
X95538934Y-79954342D01*
X95538934Y-79954342D02*
X95491315Y-80049580D01*
X95491315Y-80049580D02*
X95443696Y-80097200D01*
X95443696Y-80097200D02*
X95348458Y-80144819D01*
X95348458Y-80144819D02*
X95253220Y-80144819D01*
X95253220Y-80144819D02*
X95157982Y-80097200D01*
X95157982Y-80097200D02*
X95110363Y-80049580D01*
X95110363Y-80049580D02*
X95062744Y-79954342D01*
X95062744Y-79954342D02*
X95015125Y-79763866D01*
X95015125Y-79763866D02*
X95015125Y-79525771D01*
X95015125Y-79525771D02*
X95062744Y-79335295D01*
X95062744Y-79335295D02*
X95110363Y-79240057D01*
X95110363Y-79240057D02*
X95157982Y-79192438D01*
X95157982Y-79192438D02*
X95253220Y-79144819D01*
X95872268Y-79763866D02*
X95919887Y-79716247D01*
X95919887Y-79716247D02*
X96015125Y-79668628D01*
X96015125Y-79668628D02*
X96205601Y-79763866D01*
X96205601Y-79763866D02*
X96300839Y-79716247D01*
X96300839Y-79716247D02*
X96348458Y-79668628D01*
X84062744Y-96972438D02*
X83967506Y-96924819D01*
X83967506Y-96924819D02*
X83824649Y-96924819D01*
X83824649Y-96924819D02*
X83681792Y-96972438D01*
X83681792Y-96972438D02*
X83586554Y-97067676D01*
X83586554Y-97067676D02*
X83538935Y-97162914D01*
X83538935Y-97162914D02*
X83491316Y-97353390D01*
X83491316Y-97353390D02*
X83491316Y-97496247D01*
X83491316Y-97496247D02*
X83538935Y-97686723D01*
X83538935Y-97686723D02*
X83586554Y-97781961D01*
X83586554Y-97781961D02*
X83681792Y-97877200D01*
X83681792Y-97877200D02*
X83824649Y-97924819D01*
X83824649Y-97924819D02*
X83919887Y-97924819D01*
X83919887Y-97924819D02*
X84062744Y-97877200D01*
X84062744Y-97877200D02*
X84110363Y-97829580D01*
X84110363Y-97829580D02*
X84110363Y-97496247D01*
X84110363Y-97496247D02*
X83919887Y-97496247D01*
X84538935Y-97924819D02*
X84538935Y-96924819D01*
X84538935Y-96924819D02*
X84919887Y-96924819D01*
X84919887Y-96924819D02*
X85015125Y-96972438D01*
X85015125Y-96972438D02*
X85062744Y-97020057D01*
X85062744Y-97020057D02*
X85110363Y-97115295D01*
X85110363Y-97115295D02*
X85110363Y-97258152D01*
X85110363Y-97258152D02*
X85062744Y-97353390D01*
X85062744Y-97353390D02*
X85015125Y-97401009D01*
X85015125Y-97401009D02*
X84919887Y-97448628D01*
X84919887Y-97448628D02*
X84538935Y-97448628D01*
X85538935Y-97924819D02*
X85538935Y-96924819D01*
X86205601Y-96924819D02*
X86396077Y-96924819D01*
X86396077Y-96924819D02*
X86491315Y-96972438D01*
X86491315Y-96972438D02*
X86586553Y-97067676D01*
X86586553Y-97067676D02*
X86634172Y-97258152D01*
X86634172Y-97258152D02*
X86634172Y-97591485D01*
X86634172Y-97591485D02*
X86586553Y-97781961D01*
X86586553Y-97781961D02*
X86491315Y-97877200D01*
X86491315Y-97877200D02*
X86396077Y-97924819D01*
X86396077Y-97924819D02*
X86205601Y-97924819D01*
X86205601Y-97924819D02*
X86110363Y-97877200D01*
X86110363Y-97877200D02*
X86015125Y-97781961D01*
X86015125Y-97781961D02*
X85967506Y-97591485D01*
X85967506Y-97591485D02*
X85967506Y-97258152D01*
X85967506Y-97258152D02*
X86015125Y-97067676D01*
X86015125Y-97067676D02*
X86110363Y-96972438D01*
X86110363Y-96972438D02*
X86205601Y-96924819D01*
X87586553Y-97924819D02*
X87015125Y-97924819D01*
X87300839Y-97924819D02*
X87300839Y-96924819D01*
X87300839Y-96924819D02*
X87205601Y-97067676D01*
X87205601Y-97067676D02*
X87110363Y-97162914D01*
X87110363Y-97162914D02*
X87015125Y-97210533D01*
X87919887Y-96924819D02*
X88538934Y-96924819D01*
X88538934Y-96924819D02*
X88205601Y-97305771D01*
X88205601Y-97305771D02*
X88348458Y-97305771D01*
X88348458Y-97305771D02*
X88443696Y-97353390D01*
X88443696Y-97353390D02*
X88491315Y-97401009D01*
X88491315Y-97401009D02*
X88538934Y-97496247D01*
X88538934Y-97496247D02*
X88538934Y-97734342D01*
X88538934Y-97734342D02*
X88491315Y-97829580D01*
X88491315Y-97829580D02*
X88443696Y-97877200D01*
X88443696Y-97877200D02*
X88348458Y-97924819D01*
X88348458Y-97924819D02*
X88062744Y-97924819D01*
X88062744Y-97924819D02*
X87967506Y-97877200D01*
X87967506Y-97877200D02*
X87919887Y-97829580D01*
X88824649Y-97543866D02*
X88872268Y-97496247D01*
X88872268Y-97496247D02*
X88967506Y-97448628D01*
X88967506Y-97448628D02*
X89157982Y-97543866D01*
X89157982Y-97543866D02*
X89253220Y-97496247D01*
X89253220Y-97496247D02*
X89300839Y-97448628D01*
X90396077Y-96877200D02*
X89538935Y-98162914D01*
X90729411Y-96924819D02*
X90729411Y-97734342D01*
X90729411Y-97734342D02*
X90777030Y-97829580D01*
X90777030Y-97829580D02*
X90824649Y-97877200D01*
X90824649Y-97877200D02*
X90919887Y-97924819D01*
X90919887Y-97924819D02*
X91110363Y-97924819D01*
X91110363Y-97924819D02*
X91205601Y-97877200D01*
X91205601Y-97877200D02*
X91253220Y-97829580D01*
X91253220Y-97829580D02*
X91300839Y-97734342D01*
X91300839Y-97734342D02*
X91300839Y-96924819D01*
X91729411Y-97877200D02*
X91872268Y-97924819D01*
X91872268Y-97924819D02*
X92110363Y-97924819D01*
X92110363Y-97924819D02*
X92205601Y-97877200D01*
X92205601Y-97877200D02*
X92253220Y-97829580D01*
X92253220Y-97829580D02*
X92300839Y-97734342D01*
X92300839Y-97734342D02*
X92300839Y-97639104D01*
X92300839Y-97639104D02*
X92253220Y-97543866D01*
X92253220Y-97543866D02*
X92205601Y-97496247D01*
X92205601Y-97496247D02*
X92110363Y-97448628D01*
X92110363Y-97448628D02*
X91919887Y-97401009D01*
X91919887Y-97401009D02*
X91824649Y-97353390D01*
X91824649Y-97353390D02*
X91777030Y-97305771D01*
X91777030Y-97305771D02*
X91729411Y-97210533D01*
X91729411Y-97210533D02*
X91729411Y-97115295D01*
X91729411Y-97115295D02*
X91777030Y-97020057D01*
X91777030Y-97020057D02*
X91824649Y-96972438D01*
X91824649Y-96972438D02*
X91919887Y-96924819D01*
X91919887Y-96924819D02*
X92157982Y-96924819D01*
X92157982Y-96924819D02*
X92300839Y-96972438D01*
X93062744Y-97401009D02*
X93205601Y-97448628D01*
X93205601Y-97448628D02*
X93253220Y-97496247D01*
X93253220Y-97496247D02*
X93300839Y-97591485D01*
X93300839Y-97591485D02*
X93300839Y-97734342D01*
X93300839Y-97734342D02*
X93253220Y-97829580D01*
X93253220Y-97829580D02*
X93205601Y-97877200D01*
X93205601Y-97877200D02*
X93110363Y-97924819D01*
X93110363Y-97924819D02*
X92729411Y-97924819D01*
X92729411Y-97924819D02*
X92729411Y-96924819D01*
X92729411Y-96924819D02*
X93062744Y-96924819D01*
X93062744Y-96924819D02*
X93157982Y-96972438D01*
X93157982Y-96972438D02*
X93205601Y-97020057D01*
X93205601Y-97020057D02*
X93253220Y-97115295D01*
X93253220Y-97115295D02*
X93253220Y-97210533D01*
X93253220Y-97210533D02*
X93205601Y-97305771D01*
X93205601Y-97305771D02*
X93157982Y-97353390D01*
X93157982Y-97353390D02*
X93062744Y-97401009D01*
X93062744Y-97401009D02*
X92729411Y-97401009D01*
X93491316Y-98020057D02*
X94253220Y-98020057D01*
X94491316Y-97924819D02*
X94491316Y-96924819D01*
X94491316Y-96924819D02*
X94729411Y-96924819D01*
X94729411Y-96924819D02*
X94872268Y-96972438D01*
X94872268Y-96972438D02*
X94967506Y-97067676D01*
X94967506Y-97067676D02*
X95015125Y-97162914D01*
X95015125Y-97162914D02*
X95062744Y-97353390D01*
X95062744Y-97353390D02*
X95062744Y-97496247D01*
X95062744Y-97496247D02*
X95015125Y-97686723D01*
X95015125Y-97686723D02*
X94967506Y-97781961D01*
X94967506Y-97781961D02*
X94872268Y-97877200D01*
X94872268Y-97877200D02*
X94729411Y-97924819D01*
X94729411Y-97924819D02*
X94491316Y-97924819D01*
X95491316Y-97543866D02*
X96253221Y-97543866D01*
X85348458Y-66492438D02*
X85253220Y-66444819D01*
X85253220Y-66444819D02*
X85110363Y-66444819D01*
X85110363Y-66444819D02*
X84967506Y-66492438D01*
X84967506Y-66492438D02*
X84872268Y-66587676D01*
X84872268Y-66587676D02*
X84824649Y-66682914D01*
X84824649Y-66682914D02*
X84777030Y-66873390D01*
X84777030Y-66873390D02*
X84777030Y-67016247D01*
X84777030Y-67016247D02*
X84824649Y-67206723D01*
X84824649Y-67206723D02*
X84872268Y-67301961D01*
X84872268Y-67301961D02*
X84967506Y-67397200D01*
X84967506Y-67397200D02*
X85110363Y-67444819D01*
X85110363Y-67444819D02*
X85205601Y-67444819D01*
X85205601Y-67444819D02*
X85348458Y-67397200D01*
X85348458Y-67397200D02*
X85396077Y-67349580D01*
X85396077Y-67349580D02*
X85396077Y-67016247D01*
X85396077Y-67016247D02*
X85205601Y-67016247D01*
X85824649Y-67444819D02*
X85824649Y-66444819D01*
X85824649Y-66444819D02*
X86205601Y-66444819D01*
X86205601Y-66444819D02*
X86300839Y-66492438D01*
X86300839Y-66492438D02*
X86348458Y-66540057D01*
X86348458Y-66540057D02*
X86396077Y-66635295D01*
X86396077Y-66635295D02*
X86396077Y-66778152D01*
X86396077Y-66778152D02*
X86348458Y-66873390D01*
X86348458Y-66873390D02*
X86300839Y-66921009D01*
X86300839Y-66921009D02*
X86205601Y-66968628D01*
X86205601Y-66968628D02*
X85824649Y-66968628D01*
X86824649Y-67444819D02*
X86824649Y-66444819D01*
X87491315Y-66444819D02*
X87681791Y-66444819D01*
X87681791Y-66444819D02*
X87777029Y-66492438D01*
X87777029Y-66492438D02*
X87872267Y-66587676D01*
X87872267Y-66587676D02*
X87919886Y-66778152D01*
X87919886Y-66778152D02*
X87919886Y-67111485D01*
X87919886Y-67111485D02*
X87872267Y-67301961D01*
X87872267Y-67301961D02*
X87777029Y-67397200D01*
X87777029Y-67397200D02*
X87681791Y-67444819D01*
X87681791Y-67444819D02*
X87491315Y-67444819D01*
X87491315Y-67444819D02*
X87396077Y-67397200D01*
X87396077Y-67397200D02*
X87300839Y-67301961D01*
X87300839Y-67301961D02*
X87253220Y-67111485D01*
X87253220Y-67111485D02*
X87253220Y-66778152D01*
X87253220Y-66778152D02*
X87300839Y-66587676D01*
X87300839Y-66587676D02*
X87396077Y-66492438D01*
X87396077Y-66492438D02*
X87491315Y-66444819D01*
X88872267Y-67444819D02*
X88300839Y-67444819D01*
X88586553Y-67444819D02*
X88586553Y-66444819D01*
X88586553Y-66444819D02*
X88491315Y-66587676D01*
X88491315Y-66587676D02*
X88396077Y-66682914D01*
X88396077Y-66682914D02*
X88300839Y-66730533D01*
X89824648Y-67444819D02*
X89253220Y-67444819D01*
X89538934Y-67444819D02*
X89538934Y-66444819D01*
X89538934Y-66444819D02*
X89443696Y-66587676D01*
X89443696Y-66587676D02*
X89348458Y-66682914D01*
X89348458Y-66682914D02*
X89253220Y-66730533D01*
X90110363Y-67063866D02*
X90157982Y-67016247D01*
X90157982Y-67016247D02*
X90253220Y-66968628D01*
X90253220Y-66968628D02*
X90443696Y-67063866D01*
X90443696Y-67063866D02*
X90538934Y-67016247D01*
X90538934Y-67016247D02*
X90586553Y-66968628D01*
X91681791Y-66397200D02*
X90824649Y-67682914D01*
X92015125Y-66444819D02*
X92015125Y-67254342D01*
X92015125Y-67254342D02*
X92062744Y-67349580D01*
X92062744Y-67349580D02*
X92110363Y-67397200D01*
X92110363Y-67397200D02*
X92205601Y-67444819D01*
X92205601Y-67444819D02*
X92396077Y-67444819D01*
X92396077Y-67444819D02*
X92491315Y-67397200D01*
X92491315Y-67397200D02*
X92538934Y-67349580D01*
X92538934Y-67349580D02*
X92586553Y-67254342D01*
X92586553Y-67254342D02*
X92586553Y-66444819D01*
X93253220Y-66444819D02*
X93348458Y-66444819D01*
X93348458Y-66444819D02*
X93443696Y-66492438D01*
X93443696Y-66492438D02*
X93491315Y-66540057D01*
X93491315Y-66540057D02*
X93538934Y-66635295D01*
X93538934Y-66635295D02*
X93586553Y-66825771D01*
X93586553Y-66825771D02*
X93586553Y-67063866D01*
X93586553Y-67063866D02*
X93538934Y-67254342D01*
X93538934Y-67254342D02*
X93491315Y-67349580D01*
X93491315Y-67349580D02*
X93443696Y-67397200D01*
X93443696Y-67397200D02*
X93348458Y-67444819D01*
X93348458Y-67444819D02*
X93253220Y-67444819D01*
X93253220Y-67444819D02*
X93157982Y-67397200D01*
X93157982Y-67397200D02*
X93110363Y-67349580D01*
X93110363Y-67349580D02*
X93062744Y-67254342D01*
X93062744Y-67254342D02*
X93015125Y-67063866D01*
X93015125Y-67063866D02*
X93015125Y-66825771D01*
X93015125Y-66825771D02*
X93062744Y-66635295D01*
X93062744Y-66635295D02*
X93110363Y-66540057D01*
X93110363Y-66540057D02*
X93157982Y-66492438D01*
X93157982Y-66492438D02*
X93253220Y-66444819D01*
X93872268Y-66444819D02*
X94443696Y-66444819D01*
X94157982Y-67444819D02*
X94157982Y-66444819D01*
X94681792Y-66444819D02*
X95348458Y-67444819D01*
X95348458Y-66444819D02*
X94681792Y-67444819D01*
X95729411Y-67444819D02*
X95729411Y-66444819D01*
X95729411Y-66444819D02*
X95967506Y-66444819D01*
X95967506Y-66444819D02*
X96110363Y-66492438D01*
X96110363Y-66492438D02*
X96205601Y-66587676D01*
X96205601Y-66587676D02*
X96253220Y-66682914D01*
X96253220Y-66682914D02*
X96300839Y-66873390D01*
X96300839Y-66873390D02*
X96300839Y-67016247D01*
X96300839Y-67016247D02*
X96253220Y-67206723D01*
X96253220Y-67206723D02*
X96205601Y-67301961D01*
X96205601Y-67301961D02*
X96110363Y-67397200D01*
X96110363Y-67397200D02*
X95967506Y-67444819D01*
X95967506Y-67444819D02*
X95729411Y-67444819D01*
D12*
%TO.C,DS1*%
X180499700Y-121799340D02*
G75*
G02*
X179999320Y-122299720I-500380J0D01*
G01*
X179999320Y-57798960D02*
G75*
G02*
X180499640Y-58299340I-20J-500340D01*
G01*
X165998840Y-122299720D02*
G75*
G02*
X165498460Y-121799340I0J500380D01*
G01*
X165500000Y-58300000D02*
G75*
G02*
X166000000Y-57800000I500000J0D01*
G01*
X191140000Y-130140000D02*
X191140000Y-49860000D01*
X191140000Y-49860000D02*
X154860000Y-49860000D01*
X185500000Y-127000000D02*
X160500000Y-127000000D01*
X185500000Y-54000000D02*
X185500000Y-127000000D01*
X180500000Y-58299340D02*
X180500000Y-121800000D01*
X179999320Y-122299720D02*
X166000000Y-122299720D01*
X166000000Y-57800000D02*
X180000000Y-57800000D01*
X165500000Y-121800000D02*
X165500000Y-58300000D01*
X160500000Y-127000000D02*
X160500000Y-54000000D01*
X160500000Y-54000000D02*
X185500000Y-54000000D01*
X154860000Y-130140000D02*
X191140000Y-130140000D01*
X154860000Y-130130000D02*
X154860000Y-129340000D01*
X154860000Y-49860000D02*
X154860000Y-129340000D01*
X154500000Y-123500000D02*
X154500000Y-120500000D01*
%TO.C,U1*%
X73468200Y-116458600D02*
X99328199Y-116458600D01*
X73500000Y-62875000D02*
X73468200Y-116458600D01*
X77460120Y-56504680D02*
X95443320Y-56504680D01*
X77460120Y-62854680D02*
X77460120Y-56504680D01*
X95443320Y-56504680D02*
X95443320Y-62854680D01*
X99328199Y-116458600D02*
X99360000Y-62875000D01*
X99360000Y-62875000D02*
X73500001Y-62875000D01*
X74532200Y-109568800D02*
X83168200Y-109568800D01*
X83168200Y-116858600D01*
X74532200Y-116858600D01*
X74532200Y-109568800D01*
X89532200Y-109568800D02*
X98168200Y-109568800D01*
X98168200Y-116858600D01*
X89532200Y-116858600D01*
X89532200Y-109568800D01*
%TD*%
M02*
